<?xml version="1.0" standalone="no"?>
<!DOCTYPE svg PUBLIC "-//W3C//DTD SVG 1.1//EN" "http://www.w3.org/Graphics/SVG/1.1/DTD/svg11.dtd" >
<svg>
<metadata>
Created by FontForge 20120731 at Mon Oct  1 14:08:17 2018
 By www-data
Copyright (c) 2011-2012, Julieta Ulanovsky (julieta.ulanovsky@gmail.com), with Reserved Font Names 'Montserrat'
</metadata>
<defs>
<font id="TUVMontserrat" horiz-adv-x="587" >
  <font-face 
    font-family="TUV Montserrat"
    font-weight="400"
    font-stretch="normal"
    units-per-em="1000"
    panose-1="2 0 5 5 0 0 0 2 0 4"
    ascent="800"
    descent="-200"
    x-height="530"
    cap-height="699"
    bbox="-110 -250 1130 1094"
    underline-thickness="50"
    underline-position="-50"
    unicode-range="U+000D-1EAB0"
  />
<missing-glyph horiz-adv-x="274" 
 />
    <glyph glyph-name=".notdef" horiz-adv-x="274" 
 />
    <glyph glyph-name="_1" horiz-adv-x="0" 
 />
    <glyph glyph-name="nonmarkingreturn" horiz-adv-x="333" 
 />
    <glyph glyph-name="NULL" horiz-adv-x="0" 
 />
    <glyph glyph-name="CR.001" unicode="&#xd;" horiz-adv-x="274" 
 />
    <glyph glyph-name="space" unicode=" " horiz-adv-x="274" 
 />
    <glyph glyph-name="exclam" unicode="!" horiz-adv-x="295" 
d="M78 716h140v-129l-30 -361h-80l-30 361v129zM148 -8q-30 0 -52 22t-22 52.5t22 52.5t52.5 22t52.5 -22t22 -52.5t-22 -52.5t-53 -22z" />
    <glyph glyph-name="quotedbl" unicode="&#x22;" horiz-adv-x="374" 
d="M77 453v246h78v-246h-78zM219 453v246h78v-246h-78z" />
    <glyph glyph-name="numbersign" unicode="#" horiz-adv-x="735" 
d="M671 436h-108l-29 -166h123l-22 -110h-119l-28 -160h-111l28 160h-147l-28 -160h-112l28 160h-103l22 110h100l29 166h-114l22 110h111l29 170h111l-29 -170h147l29 170h112l-31 -170h112zM453 436h-147l-30 -166h147z" />
    <glyph glyph-name="dollar" unicode="$" horiz-adv-x="619" 
d="M283 -72v73q-137 14 -246 109l73 87q84 -73 173 -87v194q-113 27 -165.5 71t-52.5 130.5t60.5 141.5t157.5 60v50h64v-51q110 -8 208 -75l-65 -92q-66 47 -143 58v-188h3q115 -27 169 -73t54 -133.5t-62 -142.5t-164 -60v-72h-64zM347 287v-180q48 5 76 28t28 58
t-22 55.5t-82 38.5zM283 427v173q-45 -4 -70.5 -26.5t-25.5 -56t20 -53t76 -37.5z" />
    <glyph glyph-name="percent" unicode="%" horiz-adv-x="786" 
d="M303 669q43 -46 43 -112t-43.5 -113t-108 -47t-107.5 46.5t-43 112.5t43.5 113t108 47t107.5 -47zM710 699l-512 -699h-129l512 699h129zM236 504q16 21 16 51t-17 50.5t-41.5 20.5t-40.5 -20.5t-16 -50.5t17 -50.5t41.5 -20.5t40.5 20zM700 264q43 -46 43 -112
t-43.5 -113t-108 -47t-107.5 46.5t-43 112.5t43.5 113t108 47t107.5 -47zM635 97q16 21 16 51t-17 50.5t-41.5 20.5t-40.5 -20.5t-16 -50.5t17 -50.5t41.5 -20.5t40.5 20z" />
    <glyph glyph-name="ampersand" unicode="&#x26;" horiz-adv-x="694" 
d="M285 -8q-98 0 -167 54.5t-69 149.5q0 113 164 201q-41 47 -57.5 77t-16.5 76q0 80 59 123t139 43t136 -41t56 -115q0 -99 -160 -187q80 -98 130 -150q31 46 48 107l82 -58q-26 -69 -59 -121q40 -41 102 -99l-75 -70l-92 91q-88 -81 -220 -81zM433 147q-101 106 -160 178
q-113 -61 -113 -134q0 -45 38 -73.5t101 -28.5t134 58zM310 444q113 56 113 104q0 40 -26.5 59.5t-60 19.5t-60 -21t-26.5 -49t13.5 -50.5t46.5 -62.5z" />
    <glyph glyph-name="quotesingle" unicode="'" horiz-adv-x="232" 
d="M77 453v246h78v-246h-78z" />
    <glyph glyph-name="parenleft" unicode="(" horiz-adv-x="332" 
d="M299 -133h-119q-49 68 -89.5 194t-40.5 251t40.5 251t89.5 194h119q-58 -81 -98 -205.5t-40 -239.5t40 -239.5t98 -205.5z" />
    <glyph glyph-name="parenright" unicode=")" horiz-adv-x="332" 
d="M33 757h119q49 -68 89.5 -194t40.5 -251t-40.5 -251t-89.5 -194h-119q58 81 98 205.5t40 239.5t-40 239.5t-98 205.5z" />
    <glyph glyph-name="asterisk" unicode="*" horiz-adv-x="432" 
d="M337 430l-95 64l8 -114h-68l8 115l-95 -64l-34 58l102 51l-102 50l34 59l94 -63l-7 113h68l-7 -113l94 62l34 -58l-103 -50l103 -51z" />
    <glyph glyph-name="plus" unicode="+" horiz-adv-x="568" 
d="M239 150v190h-191v94h191v188h90v-188h191v-94h-191v-190h-90z" />
    <glyph glyph-name="comma" unicode="," horiz-adv-x="281" 
d="M66 65q0 32 22 53.5t52 21.5t52.5 -21.5t22.5 -51.5t-27 -73l-60 -99h-58l37 104q-41 19 -41 66z" />
    <glyph glyph-name="hyphen" unicode="-" horiz-adv-x="476" 
d="M72 246v105h332v-105h-332z" />
    <glyph glyph-name="period" unicode="." horiz-adv-x="280" 
d="M87 14q-21 22 -21 53t21.5 52.5t52.5 21.5t53 -21.5t22 -52.5t-22 -53t-53 -22t-53 22z" />
    <glyph glyph-name="slash" unicode="/" 
d="M461 811h100l-433 -928h-100z" />
    <glyph glyph-name="zero" unicode="0" horiz-adv-x="688" 
d="M214 543q-41 -72 -41 -189t41.5 -189t129.5 -72t128.5 71.5t40.5 189.5t-40.5 189.5t-128.5 71.5t-130 -72zM130 90q-71 99 -71 264t71 263.5t214 98.5t214 -98.5t71 -263.5t-71 -263.5t-214 -98.5t-214 98z" />
    <glyph glyph-name="one" unicode="1" horiz-adv-x="381" 
d="M29 699h254v-699h-112v594h-142v105z" />
    <glyph glyph-name="two" unicode="2" horiz-adv-x="589" 
d="M288 610q-86 0 -143 -88l-95 55q46 69 101.5 104t143 35t153.5 -55.5t66 -151.5q0 -54 -28 -103t-103 -126l-164 -167h317v-113h-478v100l212 213q71 72 101 113t30 83t-32 71.5t-81 29.5z" />
    <glyph glyph-name="three" unicode="3" horiz-adv-x="578" 
d="M77 594v105h409v-92l-169 -189q96 -3 150 -60.5t54 -137.5q0 -107 -72.5 -168t-186.5 -61t-223 73l50 95q86 -60 180 -60q61 0 100.5 28.5t39.5 82t-44 85.5t-122 32q-39 0 -75 -11v90l162 188h-253z" />
    <glyph glyph-name="four" unicode="4" horiz-adv-x="572" 
d="M337 283v128h112v-128h84v-107h-84v-176h-112v176h-300v104l257 419h129l-253 -416h167z" />
    <glyph glyph-name="five" unicode="5" horiz-adv-x="579" 
d="M486 700v-107h-295v-172q44 24 100 24q98 0 169 -59t71 -160t-74 -167.5t-182 -66.5q-141 0 -225 94l63 86q8 -8 21.5 -19t55.5 -29.5t92 -18.5t91 30t41 87.5t-43.5 89t-110 31.5t-126.5 -33l-50 54v336h402z" />
    <glyph glyph-name="six" unicode="6" horiz-adv-x="620" 
d="M354 606q-93 0 -137 -63t-45 -170q25 28 72 52.5t104 24.5q94 0 157.5 -62.5t63.5 -166t-68.5 -166.5t-172.5 -63q-168 0 -232 150q-36 86 -36 194t23 180t63 114q78 82 191.5 82t205.5 -71l-59 -87q-23 20 -61.5 36t-68.5 16zM332 346q-60 0 -100.5 -33.5t-40.5 -87
t39 -92t98 -38.5t98 34.5t39 88t-36 91t-97 37.5z" />
    <glyph glyph-name="seven" unicode="7" horiz-adv-x="566" 
d="M46 498v201h492v-105l-296 -594h-130l289 592h-248v-94h-107z" />
    <glyph glyph-name="eight" unicode="8" horiz-adv-x="636" 
d="M478 384q101 -64 101 -180q0 -90 -72 -151t-189 -61t-189 61t-72 151q0 116 101 180q-75 62 -75 142.5t67 133.5t168 53t168 -53t67 -133.5t-75 -142.5zM220 123q46 -29 98 -29t98 29.5t46 84.5t-44 85t-100 30t-100 -30t-44 -85t46 -85zM229 441q38 -30 89 -30
t88.5 30.5t37.5 75t-37.5 74.5t-88.5 30t-88.5 -30t-37.5 -74.5t37 -75.5z" />
    <glyph glyph-name="nine" unicode="9" horiz-adv-x="619" 
d="M266 98q93 0 137 63t45 170q-25 -28 -72 -52.5t-104 -24.5q-94 0 -157.5 62.5t-63.5 166t68.5 166.5t172.5 63q168 0 232 -150q36 -86 36 -194t-23 -180t-63 -114q-78 -82 -191.5 -82t-205.5 71l59 87q23 -20 61.5 -36t68.5 -16zM287 358q61 0 101.5 33.5t40.5 87t-39 92
t-97.5 38.5t-96.5 -34.5t-38 -88.5t34.5 -91t94.5 -37z" />
    <glyph glyph-name="colon" unicode=":" horiz-adv-x="293" 
d="M93 14q-21 22 -21 53t21.5 52.5t52.5 21.5t53 -21.5t22 -52.5t-22 -53t-53 -22t-53 22zM93 259q-21 22 -21 53t21.5 52.5t52.5 21.5t53 -21.5t22 -52.5t-22 -53t-53 -22t-53 22z" />
    <glyph glyph-name="semicolon" unicode=";" horiz-adv-x="296" 
d="M73 66q0 32 22 53.5t52.5 21.5t53 -21.5t22.5 -50.5t-27 -75l-61 -99h-58l37 104q-41 21 -41 67zM94 259q-21 22 -21 53t21.5 52.5t52.5 21.5t53 -21.5t22 -52.5t-22 -53t-53 -22t-53 22z" />
    <glyph glyph-name="less" unicode="&#x3c;" horiz-adv-x="592" 
d="M45 334v126l471 218v-114l-352 -159v-11l352 -163v-114z" />
    <glyph glyph-name="equal" unicode="=" horiz-adv-x="624" 
d="M60 528h504v-94h-504v94zM60 340h504v-94h-504v94z" />
    <glyph glyph-name="greater" unicode="&#x3e;" horiz-adv-x="592" 
d="M547 460v-126l-471 -217v114l352 163v11l-352 159v114z" />
    <glyph glyph-name="question" unicode="?" horiz-adv-x="508" 
d="M302 217h-113v61q0 40 9.5 59.5t41.5 51.5l73 73q23 25 23 62t-24 61.5t-62 24.5t-63.5 -23.5t-29.5 -62.5h-121q10 89 69.5 139.5t148.5 50.5t145 -48.5t56 -135.5q0 -60 -33 -100q-19 -24 -29 -34t-26.5 -25.5t-28 -27t-18.5 -19.5q-18 -22 -18 -62v-45zM247 -5
q-31 0 -54 21.5t-23 52t22.5 52.5t54 22t54.5 -21.5t23 -52t-22.5 -52.5t-54.5 -22z" />
    <glyph glyph-name="at" unicode="@" horiz-adv-x="904" 
d="M446 -126q-168 0 -281.5 112t-113.5 280t119 287.5t287.5 119.5t284 -119.5t115.5 -291.5q0 -108 -41 -174.5t-109 -66.5q-49 0 -78 33.5t-31 95.5q-56 -129 -179 -129q-86 0 -151.5 69t-65.5 175t62 178t164 72q46 0 87 -24t59 -57v67h96v-349q0 -70 55 -70
q31 0 56.5 45.5t25.5 119.5q0 160 -96.5 271t-249 111t-259.5 -107t-107 -256t101 -248.5t250 -99.5q120 0 184 60l22 -37q-35 -30 -93 -48.5t-113 -18.5zM575 269q0 65 -38 107t-99 42t-98 -43t-37 -105.5t36.5 -109t99.5 -46.5t99.5 45.5t36.5 109.5z" />
    <glyph glyph-name="A" unicode="A" horiz-adv-x="742" 
d="M196 159l-70 -159h-126l308 699h126l308 -699h-126l-70 159h-350zM498 268l-127 288l-127 -288h254z" />
    <glyph glyph-name="B" unicode="B" horiz-adv-x="706" 
d="M403 0h-306v699h272q71 0 122.5 -17t76.5 -46q48 -54 48 -122q0 -82 -52 -122q-19 -14 -26 -17.5t-25 -11.5q65 -14 103.5 -58.5t38.5 -110.5q0 -73 -50 -129q-59 -65 -202 -65zM215 409h150q128 0 128 87q0 50 -31 72t-96 22h-151v-181zM215 109h185q65 0 99.5 20.5
t34.5 77.5q0 93 -149 93h-170v-191z" />
    <glyph glyph-name="C" unicode="C" horiz-adv-x="736" 
d="M416 107q61 0 105 20.5t92 65.5l76 -78q-111 -123 -269.5 -123t-263 102t-104.5 258t106.5 260t269 104t271.5 -120l-75 -82q-50 48 -94.5 67t-104.5 19q-106 0 -178 -68.5t-72 -175t71.5 -178t169.5 -71.5z" />
    <glyph glyph-name="D" unicode="D" horiz-adv-x="782" 
d="M329 0h-232v699h240q188 0 289 -91.5t101 -254.5t-98 -258t-300 -95zM608 350q0 240 -275 240h-118v-479h131q127 0 194.5 60.5t67.5 178.5z" />
    <glyph glyph-name="E" unicode="E" horiz-adv-x="654" 
d="M588 699v-111h-373v-185h335v-105h-335v-187h385v-111h-503v699h491z" />
    <glyph glyph-name="F" unicode="F" horiz-adv-x="604" 
d="M215 589v-192h310v-109h-310v-288h-118v699h466l-1 -110h-347z" />
    <glyph glyph-name="G" unicode="G" horiz-adv-x="757" 
d="M581 340h118v-239q-99 -109 -283 -109q-155 0 -259.5 102t-104.5 258t106.5 260t257.5 104t251 -88l-63 -90q-41 35 -82.5 48.5t-96.5 13.5q-106 0 -178 -68.5t-72 -180t70 -179t169.5 -67.5t166.5 43v192z" />
    <glyph glyph-name="H" unicode="H" horiz-adv-x="777" 
d="M97 0v699h118v-303h347v303h118v-699h-118v286h-347v-286h-118z" />
    <glyph glyph-name="I" unicode="I" horiz-adv-x="312" 
d="M97 699h118v-699h-118v699z" />
    <glyph glyph-name="J" unicode="J" horiz-adv-x="551" 
d="M120 593v106h340v-461q0 -122 -62 -183t-159 -61q-122 0 -208 86l67 93q68 -65 133 -65q46 0 78.5 31t32.5 93v361h-222z" />
    <glyph glyph-name="K" unicode="K" horiz-adv-x="704" 
d="M97 699h118v-341l320 341h150l-281 -306l285 -393h-140l-232 306l-102 -110v-196h-118v699z" />
    <glyph glyph-name="L" unicode="L" horiz-adv-x="566" 
d="M97 0v699h118v-587h319v-112h-437z" />
    <glyph glyph-name="M" unicode="M" horiz-adv-x="983" 
d="M215 0h-118v699h184l211 -439l211 439h183v-699h-118v546l-244 -485h-66l-243 485v-546z" />
    <glyph glyph-name="N" unicode="N" horiz-adv-x="836" 
d="M621 699h118v-699h-128l-396 510v-510h-118v699h118l406 -522v522z" />
    <glyph glyph-name="O" unicode="O" horiz-adv-x="840" 
d="M595 534q-71 74 -175 74t-175.5 -74t-71.5 -179.5t71.5 -179.5t175.5 -74t175.5 74t71.5 179.5t-72 179.5zM682 96q-106 -103 -262 -103t-262 103.5t-106 258t106 258t262 103.5t262 -103.5t106 -258t-106 -258.5z" />
    <glyph glyph-name="P" unicode="P" horiz-adv-x="684" 
d="M339 205h-124v-205h-118v699h240q159 0 232 -61t73 -188t-74.5 -186t-228.5 -59zM335 592h-120v-280h137q98 0 133.5 37.5t35.5 110t-45 102.5t-141 30z" />
    <glyph glyph-name="Q" unicode="Q" horiz-adv-x="840" 
d="M435 -6l-15 -1q-156 0 -262 103.5t-106 258t106 258t262 103.5t262 -103.5t106 -257.5q0 -117 -63 -207.5t-168 -130.5q34 -45 86 -45q38 0 74.5 20t55.5 52l67 -93q-87 -92 -199 -92q-64 0 -123 36t-83 99zM595 534q-71 74 -175 74t-175.5 -74t-71.5 -179.5t71.5 -179.5
t175.5 -74t175.5 74t71.5 179.5t-72 179.5z" />
    <glyph glyph-name="R" unicode="R" horiz-adv-x="728" 
d="M655 472q0 -173 -151 -218l183 -254h-150l-167 235h-155v-235h-118v699h260q160 0 229 -54t69 -173zM365 592h-150v-250h147q100 0 136 31t36 99.5t-37 94t-132 25.5z" />
    <glyph glyph-name="S" unicode="S" horiz-adv-x="630" 
d="M331 -8q-164 0 -291 113l74 89q106 -92 220 -92q57 0 90.5 24.5t33.5 65t-31.5 63t-108.5 41t-117 34t-71 40.5q-62 47 -62 144t70.5 149.5t174.5 52.5q67 0 133 -22t114 -62l-63 -89q-31 28 -84 46t-104.5 18t-84.5 -21t-33 -63.5t33 -65t140.5 -48.5t162 -73
t54.5 -138.5t-69 -148.5t-181 -57z" />
    <glyph glyph-name="T" unicode="T" horiz-adv-x="604" 
d="M361 591v-591h-118v591h-212v108h542v-108h-212z" />
    <glyph glyph-name="U" unicode="U" horiz-adv-x="768" 
d="M562 312v387h118v-392q0 -151 -83 -232.5t-213 -81.5t-213 81.5t-83 232.5v392h118v-387q0 -96 48 -152t130 -56t130 56t48 152z" />
    <glyph glyph-name="V" unicode="V" horiz-adv-x="700" 
d="M416 0h-132l-281 699h132l215 -522l215 522h132z" />
    <glyph glyph-name="W" unicode="W" horiz-adv-x="1048" 
d="M315 196l156 503h106l156 -503l176 503h127l-244 -699h-117l-147 479h-8l-147 -479h-117l-244 699h127z" />
    <glyph glyph-name="X" unicode="X" horiz-adv-x="673" 
d="M511 0l-172 263h-5l-172 -263h-147l240 359l-223 340h146l156 -236h5l156 236h146l-223 -340l240 -359h-147z" />
    <glyph glyph-name="Y" unicode="Y" horiz-adv-x="624" 
d="M372 0h-120v276l-260 423h129l191 -318l191 318h129l-260 -423v-276z" />
    <glyph glyph-name="Z" unicode="Z" horiz-adv-x="675" 
d="M454 591h-394v108h558v-92l-406 -495v-3h412v-109h-577v91l407 497v3z" />
    <glyph glyph-name="bracketleft" unicode="[" horiz-adv-x="355" 
d="M314 757v-84h-138v-729h138v-84h-226v897h226z" />
    <glyph glyph-name="backslash" unicode="\" horiz-adv-x="522" 
d="M28 757h100l364 -757h-100z" />
    <glyph glyph-name="bracketright" unicode="]" horiz-adv-x="355" 
d="M41 673v84h226v-897h-226v84h138v729h-138z" />
    <glyph glyph-name="asciicircum" unicode="^" horiz-adv-x="394" 
d="M273 742l-77 83l-77 -83h-97l122 156h102l121 -156h-94z" />
    <glyph glyph-name="underscore" unicode="_" horiz-adv-x="722" 
d="M72 -138v57h578v-57h-578z" />
    <glyph glyph-name="grave" unicode="`" horiz-adv-x="833" 
d="M540 600h-102l-122 96l118 49z" />
    <glyph glyph-name="a" unicode="a" 
d="M512 0h-102v71q-66 -79 -177 -79q-83 0 -137.5 47t-54.5 125.5t58 117.5t157 39h145v20q0 106 -118 106q-74 0 -154 -54l-50 70q97 77 220 77q94 0 153.5 -47.5t59.5 -149.5v-343zM400 198v45h-126q-121 0 -121 -76q0 -39 30 -59.5t83.5 -20.5t93.5 30t40 81z" />
    <glyph glyph-name="b" unicode="b" horiz-adv-x="672" 
d="M193 80v-80h-112v742h112v-303q66 101 173 101t183 -74t76 -197t-75.5 -200t-176 -77t-180.5 88zM191 265q0 -76 46 -124.5t112 -48.5t115 48t49 124.5t-48 127t-115 50.5t-113 -50.5t-46 -126.5z" />
    <glyph glyph-name="c" unicode="c" horiz-adv-x="576" 
d="M317 -8q-111 0 -191 75.5t-80 197.5t83.5 198.5t203.5 76.5t203 -83l-66 -81q-69 60 -139 60t-121.5 -46.5t-51.5 -120t51 -124.5t125.5 -51t140.5 68l66 -72q-97 -98 -224 -98z" />
    <glyph glyph-name="d" unicode="d" horiz-adv-x="672" 
d="M479 450v292h112v-742h-112v80q-62 -88 -181 -88q-101 0 -176 76t-75 200t77 198t183.5 74t171.5 -90zM159 263q0 -76 49 -124t115 -48t112 48.5t46 124.5t-46 127t-113 51t-115 -51t-48 -128z" />
    <glyph glyph-name="e" unicode="e" horiz-adv-x="618" 
d="M576 217h-417q4 -58 53 -93.5t112 -35.5q100 0 152 63l64 -70q-86 -89 -224 -89q-112 0 -190.5 74.5t-78.5 200t80 199.5t188.5 74t184.5 -65.5t76 -180.5v-77zM159 305h305q0 67 -42 103t-103.5 36t-110.5 -37.5t-49 -101.5z" />
    <glyph glyph-name="f" unicode="f" horiz-adv-x="386" 
d="M219 576v-44h140v-90h-140v-442h-112v442h-67v90h67v41q0 84 50.5 133.5t122 49.5t130.5 -53l-46 -79q-33 35 -69 35t-56 -22.5t-20 -60.5z" />
    <glyph glyph-name="g" unicode="g" horiz-adv-x="654" 
d="M573 532v-464q0 -141 -76.5 -211.5t-196.5 -70.5t-217 75l53 85q78 -59 157.5 -59t126 41t46.5 131v68q-25 -47 -71.5 -75t-104.5 -28q-106 0 -174 74t-68 184t68 184t173.5 74t171.5 -87v79h112zM158 286q0 -65 40.5 -112.5t109 -47.5t111 46t42.5 114.5t-43 116
t-111 47.5t-108.5 -49t-40.5 -115z" />
    <glyph glyph-name="h" unicode="h" horiz-adv-x="646" 
d="M193 288v-288h-112v741h112v-306q24 49 72.5 77t104.5 28q90 0 145.5 -55t55.5 -159v-326h-112v292q0 147 -122 147q-58 0 -101 -38.5t-43 -112.5z" />
    <glyph glyph-name="i" unicode="i" horiz-adv-x="274" 
d="M193 0h-112v532h112v-532zM88 638q-21 21 -21 50t21 50t50 21t50 -21t21 -50t-21 -50t-50 -21t-50 21z" />
    <glyph glyph-name="j" unicode="j" horiz-adv-x="274" 
d="M81 -25v557h112v-561q0 -84 -50.5 -133.5t-122 -49.5t-130.5 53l52 84q34 -33 68.5 -33t52.5 22t18 61zM86 638q-21 21 -21 50t21 50t50 21t50 -21t21 -50t-21 -50t-50 -21t-50 21z" />
    <glyph glyph-name="k" unicode="k" horiz-adv-x="581" 
d="M193 0h-112v742h112v-436l216 226h144l-202 -211l217 -321h-136l-158 233l-81 -82v-151z" />
    <glyph glyph-name="l" unicode="l" horiz-adv-x="274" 
d="M193 0h-112v742h112v-742z" />
    <glyph glyph-name="m" unicode="m" horiz-adv-x="1014" 
d="M193 288v-288h-112v532h112v-97q24 49 72.5 77t104.5 28q126 0 171 -104q79 104 197 104q90 0 145.5 -55t55.5 -159v-326h-112v292q0 147 -122 147q-57 0 -99.5 -36.5t-44.5 -106.5v-296h-112v292q0 76 -27 111.5t-85 35.5t-101 -38.5t-43 -112.5z" />
    <glyph glyph-name="n" unicode="n" horiz-adv-x="646" 
d="M193 288v-288h-112v532h112v-97q27 49 74.5 77t102.5 28q90 0 145.5 -55t55.5 -159v-326h-112v292q0 147 -122 147q-58 0 -101 -38.5t-43 -112.5z" />
    <glyph glyph-name="o" unicode="o" horiz-adv-x="652" 
d="M205 140q48 -48 121 -48t120.5 48.5t47.5 125.5t-47.5 125.5t-120.5 48.5t-120.5 -48.5t-47.5 -125.5t47 -126zM526 71q-80 -79 -200 -79t-200 79.5t-80 194.5t80 194.5t200 79.5t200 -79.5t80 -194.5t-80 -195z" />
    <glyph glyph-name="p" unicode="p" horiz-adv-x="672" 
d="M193 80v-274h-112v726h112v-93q66 101 173 101t183 -74t76 -197t-75.5 -200t-176 -77t-180.5 88zM191 265q0 -76 46 -124.5t112 -48.5t115 48t49 124.5t-48 127t-115 50.5t-113 -50.5t-46 -126.5z" />
    <glyph glyph-name="q" unicode="q" horiz-adv-x="672" 
d="M479 439v93h112v-726h-112v274q-80 -88 -180.5 -88t-176 77t-75.5 200t76 197t183 74t173 -101zM159 264q0 -76 49 -124t115 -48t112 48.5t46 124.5t-46 126.5t-113 50.5t-115 -50.5t-48 -127.5z" />
    <glyph glyph-name="r" unicode="r" horiz-adv-x="397" 
d="M360 427q-83 0 -125 -54t-42 -145v-228h-112v532h112v-107q27 50 73.5 82t98.5 33l1 -113h-6z" />
    <glyph glyph-name="s" unicode="s" horiz-adv-x="506" 
d="M264 -8q-58 0 -120.5 21t-110.5 59l54 87q93 -70 180 -70q38 0 60 17.5t22 44.5q0 40 -106 72q-8 3 -12 4q-166 45 -166 150q0 74 57.5 118.5t149.5 44.5t174 -54l-42 -83q-65 43 -141 43q-40 0 -65 -14.5t-25 -43.5q0 -26 26 -38q18 -9 50.5 -17t57.5 -16t48.5 -18
t50.5 -28q54 -36 54 -112t-55 -121.5t-141 -45.5z" />
    <glyph glyph-name="t" unicode="t" horiz-adv-x="418" 
d="M219 442v-270q0 -38 20 -60.5t56 -22.5t69 35l46 -79q-59 -53 -130.5 -53t-122 49.5t-50.5 133.5v267h-67v90h67v167h112v-167h140v-90h-140z" />
    <glyph glyph-name="u" unicode="u" horiz-adv-x="646" 
d="M453 244v288h112v-532h-112v97q-27 -49 -74.5 -77t-102.5 -28q-45 0 -82 14t-63.5 41t-41 67t-14.5 92v326h112v-292q0 -147 122 -147q29 0 55 10t46 29t31.5 47t11.5 65z" />
    <glyph glyph-name="v" unicode="v" horiz-adv-x="572" 
d="M222 0l-214 532h116l162 -402l162 402h116l-214 -532h-128z" />
    <glyph glyph-name="w" unicode="w" horiz-adv-x="912" 
d="M330 0h-128l-184 532h116l132 -402l132 402h116l132 -402l132 402h116l-184 -532h-128l-126 364z" />
    <glyph glyph-name="x" unicode="x" horiz-adv-x="558" 
d="M166 532l114 -175l118 175h133l-186 -260l194 -272h-138l-127 177l-124 -177h-131l189 271l-179 261h137z" />
    <glyph glyph-name="y" unicode="y" horiz-adv-x="574" 
d="M148 -212q-73 0 -132 53l51 91q35 -33 72.5 -33t61 27t23.5 59q0 14 -215 547h120l159 -392l159 392h120l-258 -632q-23 -52 -66 -82t-95 -30z" />
    <glyph glyph-name="z" unicode="z" horiz-adv-x="541" 
d="M64 434v96h416v-101l-299 -332h315v-97h-452v109l291 325h-271z" />
    <glyph glyph-name="braceleft" unicode="{" horiz-adv-x="336" 
d="M276 665q-62 0 -62 -57v-217q0 -70 -66 -82q66 -11 66 -81v-235q0 -26 14.5 -36t55.5 -10v-93h-34q-136 0 -136 132v216q0 33 -12 46.5t-38 13.5h-24v93h24q26 0 38 14t12 48v208q0 132 136 132h34v-93q-3 1 -8 1z" />
    <glyph glyph-name="bar" unicode="|" horiz-adv-x="257" 
d="M87 -153v935h83v-935h-83z" />
    <glyph glyph-name="braceright" unicode="}" horiz-adv-x="336" 
d="M86 -146h-34v93q41 0 55.5 10t14.5 36v235q0 70 66 81q-66 12 -66 82v217q0 31 -16.5 44.5t-32.5 13.5h-3l-18 -2v93h34q136 0 136 -132v-208q0 -34 12 -48t38 -14h24v-93h-24q-26 0 -38 -13.5t-12 -46.5v-216q0 -132 -136 -132z" />
    <glyph glyph-name="asciitilde" unicode="~" horiz-adv-x="565" 
d="M184 370q-40 0 -47 -65l-87 25q6 70 42 105.5t93 35.5q45 0 121 -41q50 -26 74 -26q40 0 47 65l88 -25q-6 -70 -42.5 -106t-93.5 -36q-43 0 -121 42q-50 26 -74 26z" />
    <glyph glyph-name="exclamdown" unicode="&#xa1;" horiz-adv-x="294" 
d="M216 -8h-139v126l30 361h80l29 -361v-126zM147 564q-30 0 -52 22t-22 52.5t22 52.5t52.5 22t52.5 -22t22 -52.5t-22 -52.5t-53 -22z" />
    <glyph glyph-name="cent" unicode="&#xa2;" horiz-adv-x="586" 
d="M289 -122v116q-101 11 -170.5 84.5t-69.5 185.5t69 185.5t171 87.5v119h64v-117q113 -9 186 -82l-66 -81q-61 52 -120 58v-339q66 7 125 67l66 -72q-83 -85 -191 -96v-116h-64zM289 100v330q-55 -13 -91.5 -56.5t-36.5 -105t35.5 -107.5t92.5 -61z" />
    <glyph glyph-name="sterling" unicode="&#xa3;" horiz-adv-x="616" 
d="M263 516v-131h167v-98h-167v-182h298v-105h-498v105h82v182h-86v98h86v125q0 121 61 176.5t160 55.5q131 0 197 -112l-83 -66q-41 68 -106 68q-48 0 -79.5 -27.5t-31.5 -88.5z" />
    <glyph glyph-name="currency" unicode="&#xa4;" horiz-adv-x="755" 
d="M150 152q-53 72 -53 164t51 162l-88 88l71 70l90 -89q68 44 155 44t158 -45l90 90l71 -70l-89 -89q51 -72 51 -161.5t-54 -162.5l92 -91l-70 -70l-95 93q-67 -42 -153 -42t-153 42l-94 -93l-70 70zM261 196q46 -47 116 -47t116 47t46 121t-46 120.5t-116 46.5t-116 -46.5
t-46 -120.5t46 -121z" />
    <glyph glyph-name="yen" unicode="&#xa5;" horiz-adv-x="715" 
d="M102 212h190v54l-4 6h-186v88h134l-201 339h129l189 -321h7l196 321h127l-208 -339h131v-88h-185l-3 -6v-54h188v-88h-189v-124h-125v124h-190v88z" />
    <glyph glyph-name="brokenbar" unicode="&#xa6;" horiz-adv-x="276" 
d="M91 430v327h94v-327h-94zM91 -24v327h94v-327h-94z" />
    <glyph glyph-name="section" unicode="&#xa7;" horiz-adv-x="610" 
d="M145 317q0 -47 58.5 -78t149.5 -31q52 0 86.5 22t34.5 54.5t-23 53.5t-59 32q-72 21 -127.5 21t-87.5 -19.5t-32 -54.5zM567 299q0 -50 -32 -90.5t-100 -56.5q46 -17 69 -52t23 -72q0 -69 -58.5 -117.5t-156.5 -48.5q-143 0 -253 98l64 76q98 -81 192 -81q107 0 107 68
q0 32 -33.5 53t-131 49.5t-152 69t-54.5 118.5q0 48 33 88t92 51q-81 32 -81 112t58.5 129t149.5 49q65 0 114 -16t100 -53l-57 -80q-74 55 -159 55q-46 0 -72.5 -21t-26.5 -54.5t29 -53.5t131.5 -44.5t153.5 -63.5t51 -112z" />
    <glyph glyph-name="dieresis" unicode="&#xa8;" horiz-adv-x="610" 
d="M226 601q-25 0 -42.5 18t-17.5 43.5t18 43.5t43.5 18t43.5 -17.5t18 -43t-18.5 -44t-44.5 -18.5zM412 601q-25 0 -43 18t-18 43.5t18 43.5t43.5 18t43.5 -17.5t18 -43t-18 -44t-44 -18.5z" />
    <glyph glyph-name="copyright" unicode="&#xa9;" horiz-adv-x="832" 
d="M672 606q106 -106 106 -255t-106 -256t-257 -107t-256 106t-105 255t106 256t256 107t256 -106zM641 125q93 94 93 225t-91.5 224t-224.5 93t-225 -93.5t-92 -225t91 -224.5t224 -93t225 94zM583 224q-68 -71 -155 -71t-145 54.5t-58 143.5t60 144t149 55t146 -60
l-48 -59q-52 44 -102 44t-87.5 -33.5t-37.5 -87t37.5 -90.5t92 -37t100.5 49z" />
    <glyph glyph-name="ordfeminine" unicode="&#xaa;" horiz-adv-x="352" 
d="M277 466h-47v33q-31 -37 -75.5 -37t-70 22t-25.5 58q0 73 99 73h68v9q0 49 -55 49q-33 0 -71 -25l-23 33q44 35 95 35q105 0 105 -91v-159zM225 558v21h-58q-56 0 -56 -36q0 -18 14 -27.5t38.5 -9.5t43 14.5t18.5 37.5z" />
    <glyph glyph-name="guillemotleft" unicode="&#xab;" horiz-adv-x="547" 
d="M283 416l-115 -176l115 -176h-108l-119 176l119 176h108zM481 416l-115 -176l115 -176h-108l-119 176l119 176h108z" />
    <glyph glyph-name="logicalnot" unicode="&#xac;" horiz-adv-x="828" 
d="M67 445h669v-357h-82v269h-587v88z" />
    <glyph glyph-name="registered" unicode="&#xae;" horiz-adv-x="832" 
d="M672 606q106 -106 106 -255t-106 -256t-257 -107t-256 106t-105 255t106 256t256 107t256 -106zM641 125q93 94 93 225t-91.5 224t-224.5 93t-225 -93.5t-92 -225t91 -224.5t224 -93t225 94zM591 420q0 -97 -85 -122l104 -141h-84l-94 131h-86v-131h-68v391h147
q89 0 127.5 -30.5t38.5 -97.5zM429 489h-83v-141h81q56 0 76.5 17t20.5 55.5t-21 53.5t-74 15z" />
    <glyph glyph-name="macron" unicode="&#xaf;" horiz-adv-x="424" 
d="M366 687v-87h-307v87h307z" />
    <glyph glyph-name="degree" unicode="&#xb0;" horiz-adv-x="416" 
d="M99 670q45 45 109 45t109 -45t45 -109t-45 -108.5t-109 -44.5t-109 44.5t-45 108.5t45 109zM106 561q0 -42 29.5 -72t72 -30t72 30t29.5 72t-29.5 71.5t-72 29.5t-72 -29.5t-29.5 -71.5z" />
    <glyph glyph-name="plusminus" unicode="&#xb1;" horiz-adv-x="568" 
d="M239 276v135h-191v94h191v133h90v-133h191v-94h-191v-135h-90zM48 220h472v-84h-472v84z" />
    <glyph glyph-name="twosuperior" unicode="&#xb2;" horiz-adv-x="419" 
d="M205 654q-51 0 -84 -51l-55 32q53 81 140 81q54 0 92.5 -32.5t38.5 -88.5q0 -31 -16.5 -59.5t-60.5 -74.5l-95 -97h185v-66h-279v58l123 125q42 42 59.5 66t17.5 48.5t-18.5 41.5t-47.5 17z" />
    <glyph glyph-name="threesuperior" unicode="&#xb3;" horiz-adv-x="396" 
d="M77 637v62h242v-55l-100 -112q57 -1 88.5 -35.5t31.5 -89.5t-42.5 -91t-110.5 -36t-132 43l30 56q49 -35 106 -35q36 0 59.5 16.5t23.5 48.5t-26 51t-60.5 19t-56.5 -7v53l96 112h-149z" />
    <glyph glyph-name="acute" unicode="&#xb4;" horiz-adv-x="833" 
d="M440 628h-102l106 145l118 -49z" />
    <glyph glyph-name="mu" unicode="&#xb5;" horiz-adv-x="642" 
d="M86 -194v726h112v-292q0 -147 122 -147q58 0 101 38.5t43 112.5v288h112v-532h-112v97q-27 -49 -74.5 -77t-99.5 -28t-92 17v-203h-112z" />
    <glyph glyph-name="paragraph" unicode="&#xb6;" horiz-adv-x="671" 
d="M35 556q0 85 59 143t179 58h299v-869h-93v774h-112v-774h-90v479q-24 -3 -46 -3q-55 0 -96 19t-61 49q-39 58 -39 124z" />
    <glyph glyph-name="periodcentered" unicode="&#xb7;" horiz-adv-x="291" 
d="M92 266q-21 22 -21 53t21.5 52.5t52.5 21.5t53 -21.5t22 -52.5t-22 -53t-53 -22t-53 22z" />
    <glyph glyph-name="cedilla" unicode="&#xb8;" horiz-adv-x="281" 
d="M235 -117q0 -38 -31 -66.5t-78.5 -28.5t-83.5 22l26 57q19 -10 38.5 -10t30.5 11.5t11 27.5t-11.5 28.5t-29 12.5t-29.5 -5l36 68h71l-20 -38q70 -9 70 -79z" />
    <glyph glyph-name="onesuperior" unicode="&#xb9;" horiz-adv-x="268" 
d="M41 699h148v-409h-65v348h-83v61z" />
    <glyph glyph-name="ordmasculine" unicode="&#xba;" horiz-adv-x="378" 
d="M131 527q23 -23 58 -23t57.5 23t22.5 59.5t-22.5 59.5t-57.5 23t-57.5 -23t-22.5 -59.5t22 -59.5zM284 493q-38 -37 -95 -37t-95 37.5t-38 92.5t38 92.5t95 37.5t95 -37.5t38 -92.5t-38 -93z" />
    <glyph glyph-name="guillemotright" unicode="&#xbb;" horiz-adv-x="547" 
d="M379 240l-115 176h108l119 -176l-119 -176h-108zM181 240l-115 176h108l119 -176l-119 -176h-108z" />
    <glyph glyph-name="onequarter" unicode="&#xbc;" horiz-adv-x="863" 
d="M591 757h72l-373 -765h-72zM709 166v75h65v-75h50v-63h-50v-103h-65v103h-175v61l149 245h76l-148 -243h98zM35 699h148v-409h-65v348h-83v61z" />
    <glyph glyph-name="onehalf" unicode="&#xbd;" horiz-adv-x="928" 
d="M623 757h72l-373 -765h-72zM739 356q-49 0 -84 -51l-54 32q53 81 139 81q54 0 93 -32.5t39 -88.5q0 -31 -16.5 -60t-60.5 -74l-96 -97h185v-66h-279v58l124 125q41 42 58.5 66t17.5 48.5t-18.5 41.5t-47.5 17zM35 699h148v-409h-65v348h-83v61z" />
    <glyph glyph-name="threequarters" unicode="&#xbe;" horiz-adv-x="901" 
d="M632 757h72l-373 -765h-72zM750 166v75h65v-75h50v-63h-50v-103h-65v103h-175v61l149 245h76l-148 -243h98zM63 637v62h242v-55l-100 -112q57 -1 88.5 -35.5t31.5 -89.5t-42.5 -91t-110.5 -36t-132 43l30 56q49 -35 106 -35q36 0 59.5 16.5t23.5 48.5t-26 51t-60.5 19
t-56.5 -7v53l96 112h-149z" />
    <glyph glyph-name="questiondown" unicode="&#xbf;" horiz-adv-x="508" 
d="M206 490h113v-61q0 -40 -9.5 -59.5t-41.5 -51.5l-73 -73q-23 -25 -23 -62t24 -61.5t62 -24.5t63.5 23.5t29.5 62.5h121q-10 -89 -69.5 -139.5t-148.5 -50.5t-145 48.5t-56 135.5q0 60 33 100q19 24 29 34t26.5 25.5t28 27t18.5 20.5q18 21 18 61v45zM260 712
q32 0 55 -21.5t23 -52t-22.5 -52.5t-54 -22t-54.5 21.5t-23 52t22.5 52.5t53.5 22z" />
    <glyph glyph-name="Agrave" unicode="&#xc0;" horiz-adv-x="730" 
d="M422 699l308 -699h-130l-71 159h-335l-68 -159h-126l308 699h114zM482 268l-120 269l-119 -269h239zM420 757h-102l-122 96l118 49z" />
    <glyph glyph-name="Aacute" unicode="&#xc1;" horiz-adv-x="742" 
d="M196 159l-70 -159h-126l308 699h126l308 -699h-126l-70 159h-350zM498 268l-127 288l-127 -288h254zM425 758h-102l106 145l118 -49z" />
    <glyph glyph-name="Acircumflex" unicode="&#xc2;" horiz-adv-x="730" 
d="M422 699l308 -699h-130l-71 159h-335l-68 -159h-126l308 699h114zM482 268l-120 269l-119 -269h239zM309 891h104l122 -134h-97l-77 56l-77 -56h-97z" />
    <glyph glyph-name="Atilde" unicode="&#xc3;" horiz-adv-x="730" 
d="M422 699l308 -699h-130l-71 159h-335l-68 -159h-126l308 699h114zM482 268l-120 269l-119 -269h239zM438 754q-26 0 -72.5 23.5t-59.5 23.5q-33 0 -34 -44h-74q0 58 23.5 94t65.5 36q27 0 75 -23.5t63 -23.5q30 0 30 44h75q-3 -130 -92 -130z" />
    <glyph glyph-name="Adieresis" unicode="&#xc4;" horiz-adv-x="730" 
d="M422 699l308 -699h-130l-71 159h-335l-68 -159h-126l308 699h114zM482 268l-120 269l-119 -269h239zM272 753q-26 0 -43.5 18t-17.5 43.5t17.5 43.5t43.5 18t44 -17.5t18 -43t-18 -44t-44 -18.5zM457 753q-25 0 -43 18t-18 43.5t18 43.5t43.5 18t43.5 -17.5t18 -43
t-18.5 -44t-43.5 -18.5z" />
    <glyph glyph-name="Aring" unicode="&#xc5;" horiz-adv-x="730" 
d="M427 686l303 -686h-130l-71 159h-335l-68 -159h-126l302 687q-45 32 -45 79t32.5 78.5t75.5 31.5t76 -31.5t33 -79t-47 -79.5zM482 268l-120 269l-119 -269h239zM365 716q25 0 40 15.5t15 40t-15 40t-39.5 15.5t-40 -15.5t-15.5 -40t15.5 -40t39.5 -15.5z" />
    <glyph glyph-name="AE" unicode="&#xc6;" horiz-adv-x="1040" 
d="M974 699v-110h-373v-192h335v-103h-335v-184h385v-110h-514v159h-253l-85 -159h-145l366 699h619zM472 272v317h-29l-167 -317h196z" />
    <glyph glyph-name="Ccedilla" unicode="&#xc7;" horiz-adv-x="736" 
d="M416 107q61 0 105 20.5t92 65.5l76 -78q-104 -116 -254 -122l-16 -31q70 -9 70 -79q0 -38 -31 -66.5t-78.5 -28.5t-83.5 22l26 57q19 -10 38.5 -10t30.5 11.5t11 27.5t-11.5 28.5t-29 12.5t-29.5 -5l33 63q-137 17 -225 116t-88 248t106.5 253t269 104t271.5 -120
l-75 -82q-50 48 -94.5 67t-104.5 19q-106 0 -178 -68.5t-72 -175t71.5 -178t169.5 -71.5z" />
    <glyph glyph-name="Egrave" unicode="&#xc8;" horiz-adv-x="654" 
d="M421 757h-102l-122 96l118 49zM588 699v-111h-373v-185h335v-105h-335v-187h385v-111h-503v699h491z" />
    <glyph glyph-name="Eacute" unicode="&#xc9;" horiz-adv-x="654" 
d="M588 699v-111h-373v-185h335v-105h-335v-187h385v-111h-503v699h491zM396 757h-102l106 145l118 -49z" />
    <glyph glyph-name="Ecircumflex" unicode="&#xca;" horiz-adv-x="654" 
d="M588 699v-111h-373v-185h335v-105h-335v-187h385v-111h-503v699h491zM296 890h104l122 -134h-97l-77 56l-77 -56h-97z" />
    <glyph glyph-name="Edieresis" unicode="&#xcb;" horiz-adv-x="654" 
d="M250 753q-25 0 -42.5 18t-17.5 43.5t18 43.5t43.5 18t43.5 -17.5t18 -43t-18.5 -44t-44.5 -18.5zM436 753q-25 0 -43 18t-18 43.5t18 43.5t43.5 18t43.5 -17.5t18 -43t-18 -44t-44 -18.5zM588 699v-111h-373v-185h335v-105h-335v-187h385v-111h-503v699h491z" />
    <glyph glyph-name="Igrave" unicode="&#xcc;" horiz-adv-x="312" 
d="M209 757h-102l-122 96l118 49zM97 699h118v-699h-118v699z" />
    <glyph glyph-name="Iacute" unicode="&#xcd;" horiz-adv-x="312" 
d="M97 699h118v-699h-118v699zM205 757h-102l106 145l118 -49z" />
    <glyph glyph-name="Icircumflex" unicode="&#xce;" horiz-adv-x="312" 
d="M97 699h118v-699h-118v699zM115 891h104l122 -134h-97l-77 56l-77 -56h-97z" />
    <glyph glyph-name="Idieresis" unicode="&#xcf;" horiz-adv-x="312" 
d="M64 753q-26 0 -43.5 18t-17.5 43.5t17.5 43.5t43.5 18t44 -17.5t18 -43t-18 -44t-44 -18.5zM249 753q-25 0 -43 18t-18 43.5t18 43.5t43.5 18t43.5 -17.5t18 -43t-18.5 -44t-43.5 -18.5zM97 699h118v-699h-118v699z" />
    <glyph glyph-name="Eth" unicode="&#xd0;" horiz-adv-x="790" 
d="M26 294v105h79v300h240q188 0 289 -91.5t101 -254.5t-98 -258t-300 -95h-232v294h-79zM616 350q0 240 -275 240h-118v-191h250v-105h-250v-183h131q127 0 194.5 60.5t67.5 178.5z" />
    <glyph glyph-name="Ntilde" unicode="&#xd1;" horiz-adv-x="836" 
d="M621 699h118v-699h-128l-396 510v-510h-118v699h118l406 -522v522zM489 754q-26 0 -72.5 23.5t-59.5 23.5q-33 0 -34 -44h-74q0 58 23.5 94t65.5 36q27 0 75 -23.5t63 -23.5q30 0 30 44h75q-3 -130 -92 -130z" />
    <glyph glyph-name="Ograve" unicode="&#xd2;" horiz-adv-x="840" 
d="M682 96q-106 -103 -262 -103t-262 103t-106 258t106 258q107 104 262 104t262 -104q106 -103 106 -258t-106 -258zM595 534q-71 74 -175 74t-176 -74q-71 -74 -71 -180q0 -105 71 -179q72 -74 176 -74t175 74q72 73 72 179t-72 180zM492 762h-102l-122 96l118 49z" />
    <glyph glyph-name="Oacute" unicode="&#xd3;" horiz-adv-x="840" 
d="M683 97q-106 -103 -262 -103t-262 103t-106 258t106 258q107 104 262 104t262 -104q106 -103 106 -258t-106 -258zM596 535q-71 74 -175 74t-176 -74q-71 -74 -71 -180q0 -105 71 -179q72 -74 176 -74t175 74q72 73 72 179t-72 180zM475 764h-102l106 145l118 -49z" />
    <glyph glyph-name="Ocircumflex" unicode="&#xd4;" horiz-adv-x="840" 
d="M682 95q-106 -103 -262 -103t-262 103t-106 258t106 258q107 104 262 104t262 -104q106 -103 106 -258t-106 -258zM595 533q-71 74 -175 74t-176 -74q-71 -74 -71 -180q0 -105 71 -179q72 -74 176 -74t175 74q72 73 72 179t-72 180zM368 895h104l122 -134h-97l-77 56
l-77 -56h-97z" />
    <glyph glyph-name="Otilde" unicode="&#xd5;" horiz-adv-x="840" 
d="M595 534q-71 74 -175 74t-175.5 -74t-71.5 -179.5t71.5 -179.5t175.5 -74t175.5 74t71.5 179.5t-72 179.5zM682 96q-106 -103 -262 -103t-262 103.5t-106 258t106 258t262 103.5t262 -103.5t106 -258t-106 -258.5zM492 754q-26 0 -72.5 23.5t-59.5 23.5q-33 0 -34 -44
h-74q0 58 23.5 94t65.5 36q27 0 75 -23.5t63 -23.5q30 0 30 44h75q-3 -130 -92 -130z" />
    <glyph glyph-name="Odieresis" unicode="&#xd6;" horiz-adv-x="840" 
d="M322 753q-26 0 -43.5 18t-17.5 43.5t17.5 43.5t43.5 18t44 -17.5t18 -43t-18 -44t-44 -18.5zM507 753q-25 0 -43 18t-18 43.5t18 43.5t43.5 18t43.5 -17.5t18 -43t-18.5 -44t-43.5 -18.5zM595 534q-71 74 -175 74t-175.5 -74t-71.5 -179.5t71.5 -179.5t175.5 -74
t175.5 74t71.5 179.5t-72 179.5zM682 96q-106 -103 -262 -103t-262 103.5t-106 258t106 258t262 103.5t262 -103.5t106 -258t-106 -258.5z" />
    <glyph glyph-name="multiply" unicode="&#xd7;" horiz-adv-x="565" 
d="M283 443l170 171l63 -64l-169 -169l170 -171l-63 -64l-171 171l-171 -171l-64 64l171 171l-170 169l64 64z" />
    <glyph glyph-name="Oslash" unicode="&#xd8;" horiz-adv-x="840" 
d="M788 355q0 -155 -106 -258.5t-262 -103.5q-53 0 -101 12l-57 -122h-100l73 156q-85 46 -134 129.5t-49 186.5q0 154 106 257.5t262 103.5q61 0 121 -19l54 114h100l-71 -153q76 -48 120 -127.5t44 -175.5zM420 608q-104 0 -175.5 -74t-71.5 -180q0 -65 29.5 -121
t80.5 -91l212 454q-36 12 -75 12zM667 354q0 122 -92 199l-209 -447q28 -5 54 -5q104 0 175.5 74t71.5 179z" />
    <glyph glyph-name="Ugrave" unicode="&#xd9;" horiz-adv-x="768" 
d="M562 312v387h118v-392q0 -150 -83 -233q-83 -81 -213 -81q-131 0 -213 81q-83 83 -83 233v392h118v-387q0 -96 48 -152t130 -56t130 56t48 152zM457 757h-102l-122 96l118 49z" />
    <glyph glyph-name="Uacute" unicode="&#xda;" horiz-adv-x="768" 
d="M562 312v387h118v-392q0 -150 -83 -233q-83 -81 -213 -81q-131 0 -213 81q-83 83 -83 233v392h118v-387q0 -96 48 -152t130 -56t130 56t48 152zM438 757h-102l106 145l118 -49z" />
    <glyph glyph-name="Ucircumflex" unicode="&#xdb;" horiz-adv-x="768" 
d="M562 312v387h118v-392q0 -151 -83 -232.5t-213 -81.5t-213 81.5t-83 232.5v392h118v-387q0 -96 48 -152t130 -56t130 56t48 152zM336 891h104l122 -134h-97l-77 56l-77 -56h-97z" />
    <glyph glyph-name="Udieresis" unicode="&#xdc;" horiz-adv-x="768" 
d="M292 753q-25 0 -42.5 18t-17.5 43.5t18 43.5t43.5 18t43.5 -17.5t18 -43t-18.5 -44t-44.5 -18.5zM478 753q-25 0 -43 18t-18 43.5t18 43.5t43.5 18t43.5 -17.5t18 -43t-18 -44t-44 -18.5zM562 312v387h118v-392q0 -151 -83 -232.5t-213 -81.5t-213 81.5t-83 232.5v392
h118v-387q0 -96 48 -152t130 -56t130 56t48 152z" />
    <glyph glyph-name="Yacute" unicode="&#xdd;" horiz-adv-x="624" 
d="M372 0h-120v276l-260 423h129l191 -318l191 318h129l-260 -423v-276zM389 742h-102l106 145l118 -49z" />
    <glyph glyph-name="Thorn" unicode="&#xde;" horiz-adv-x="686" 
d="M642 369q0 -133 -79 -192.5t-234 -59.5h-114v-117h-118v699h118v-88h112q315 0 315 -242zM325 504h-110v-280h127q99 0 139 38.5t40 109.5t-49 101.5t-147 30.5z" />
    <glyph glyph-name="germandbls" unicode="&#xdf;" horiz-adv-x="651" 
d="M337 652q-76 0 -107 -47t-31 -139v-466h-118v456q0 72 6.5 101.5t15 55.5t20.5 44.5t31 38.5t42 32q54 29 126 29t121 -20t73 -53q45 -60 45 -130q0 -103 -104 -168q74 -8 111 -60t37 -120q0 -94 -66 -150t-189 -56h-41v98h22q75 0 115.5 24.5t40.5 84t-40 88t-107 28.5
q-23 0 -35 -1v93q72 11 107 45.5t35 80t-26.5 78.5t-83.5 33z" />
    <glyph glyph-name="agrave" unicode="&#xe0;" 
d="M512 0h-102v71q-66 -79 -177 -79q-83 0 -137.5 47t-54.5 125.5t58 117.5t157 39h145v20q0 106 -118 106q-74 0 -154 -54l-50 70q97 77 220 77q94 0 153.5 -47.5t59.5 -149.5v-343zM400 198v45h-126q-121 0 -121 -76q0 -39 30 -59.5t83.5 -20.5t93.5 30t40 81zM384 600
h-102l-122 96l118 49z" />
    <glyph glyph-name="aacute" unicode="&#xe1;" 
d="M512 0h-102v71q-66 -79 -177 -79q-83 0 -137.5 47t-54.5 125.5t58 117.5t157 39h145v20q0 106 -118 106q-74 0 -154 -54l-50 70q97 77 220 77q94 0 153.5 -47.5t59.5 -149.5v-343zM400 198v45h-126q-121 0 -121 -76q0 -39 30 -59.5t83.5 -20.5t93.5 30t40 81zM351 600
h-102l106 145l118 -49z" />
    <glyph glyph-name="acircumflex" unicode="&#xe2;" 
d="M512 0h-102v71q-66 -79 -177 -79q-83 0 -137.5 47t-54.5 125.5t58 117.5t157 39h145v20q0 106 -118 106q-74 0 -154 -54l-50 70q97 77 220 77q94 0 153.5 -47.5t59.5 -149.5v-343zM400 198v45h-126q-121 0 -121 -76q0 -39 30 -59.5t83.5 -20.5t93.5 30t40 81zM239 734
h104l122 -134h-97l-77 56l-77 -56h-97z" />
    <glyph glyph-name="atilde" unicode="&#xe3;" 
d="M512 0h-102v71q-66 -79 -177 -79q-83 0 -137.5 47t-54.5 125.5t58 117.5t157 39h145v20q0 106 -118 106q-74 0 -154 -54l-50 70q97 77 220 77q94 0 153.5 -47.5t59.5 -149.5v-343zM400 198v45h-126q-121 0 -121 -76q0 -39 30 -59.5t83.5 -20.5t93.5 30t40 81zM365 597
q-26 0 -72.5 23.5t-59.5 23.5q-33 0 -34 -44h-74q0 58 23.5 94t65.5 36q27 0 75 -23.5t63 -23.5q30 0 30 44h75q-3 -130 -92 -130z" />
    <glyph glyph-name="adieresis" unicode="&#xe4;" 
d="M512 0h-102v71q-66 -79 -177 -79q-83 0 -137.5 47t-54.5 125.5t58 117.5t157 39h145v20q0 106 -118 106q-74 0 -154 -54l-50 70q97 77 220 77q94 0 153.5 -47.5t59.5 -149.5v-343zM400 198v45h-126q-121 0 -121 -76q0 -39 30 -59.5t83.5 -20.5t93.5 30t40 81zM156 618
q-17 18 -17 44t17.5 43.5t43.5 17.5t44 -17.5t18 -43.5t-18 -44t-44 -18t-44 18zM385 600q-25 0 -43 18t-18 43.5t18 43.5t43.5 18t43.5 -17.5t18 -43.5t-18.5 -44t-43.5 -18z" />
    <glyph glyph-name="aring" unicode="&#xe5;" 
d="M512 0h-102v71q-66 -79 -177 -79q-83 0 -137.5 47t-54.5 125.5t58 117.5t157 39h145v20q0 106 -118 106q-74 0 -154 -54l-50 70q97 77 220 77q94 0 153.5 -47.5t59.5 -149.5v-343zM370 760q33 -31 33 -73t-33 -73t-76 -31t-75.5 31t-32.5 73t32.5 73.5t75.5 31.5t76 -32z
M400 198v45h-126q-121 0 -121 -76q0 -39 30 -59.5t83.5 -20.5t93.5 30t40 81zM294 632q25 0 40 15.5t15 40t-15 40t-39.5 15.5t-40 -15.5t-15.5 -40t15.5 -40t39.5 -15.5z" />
    <glyph glyph-name="ae" unicode="&#xe6;" horiz-adv-x="952" 
d="M910 230h-397q1 -64 46.5 -103t108.5 -39q90 0 142 63l64 -70q-86 -89 -215.5 -89t-202.5 96q-80 -96 -213 -96q-84 0 -143 47.5t-59 125.5t57.5 115t157.5 37h145v24q0 106 -118 106q-74 0 -154 -54l-50 70q97 77 220 77t177 -74q72 74 181.5 74t181 -65.5t71.5 -180.5
v-64zM400 198v32h-126q-93 0 -112 -28q-9 -14 -9 -35q0 -39 30 -59.5t83.5 -20.5t93.5 30t40 81zM514 317l284 -1q-4 63 -41 95.5t-94 32.5t-100.5 -34t-48.5 -93z" />
    <glyph glyph-name="ccedilla" unicode="&#xe7;" horiz-adv-x="577" 
d="M409 -117q0 -38 -31 -66.5t-78.5 -28.5t-83.5 22l26 57q19 -10 38.5 -10t30.5 11.5t11 27.5t-11.5 28.5t-29 12.5t-29.5 -5l33 62q-101 12 -169.5 85.5t-68.5 190.5t83.5 193.5t203.5 76.5t203 -83l-66 -81q-69 60 -139 60t-121.5 -46.5t-51.5 -120t50.5 -124.5
t125.5 -51t141 68l66 -72q-82 -82 -186 -95l-17 -33q70 -9 70 -79z" />
    <glyph glyph-name="egrave" unicode="&#xe8;" horiz-adv-x="618" 
d="M412 600h-102l-122 96l118 49zM576 217h-417q4 -58 53 -93.5t112 -35.5q100 0 152 63l64 -70q-86 -89 -224 -89q-112 0 -190.5 74.5t-78.5 200t80 199.5t188.5 74t184.5 -65.5t76 -180.5v-77zM159 305h305q0 67 -42 103t-103.5 36t-110.5 -37.5t-49 -101.5z" />
    <glyph glyph-name="eacute" unicode="&#xe9;" horiz-adv-x="618" 
d="M576 217h-417q4 -58 53 -93.5t112 -35.5q100 0 152 63l64 -70q-86 -89 -224 -89q-112 0 -190.5 74.5t-78.5 200t80 199.5t188.5 74t184.5 -65.5t76 -180.5v-77zM159 305h305q0 67 -42 103t-103.5 36t-110.5 -37.5t-49 -101.5zM376 602h-102l106 145l118 -49z" />
    <glyph glyph-name="ecircumflex" unicode="&#xea;" horiz-adv-x="618" 
d="M576 217h-417q5 -59 53 -94q50 -35 112 -35q99 0 152 63l64 -70q-86 -89 -224 -89q-111 0 -191 74q-78 75 -78 200q0 126 80 200t188 74t185 -66q76 -64 76 -180v-77zM159 305h305q0 33 -11 59t-30.5 44t-46.5 27t-58 9q-60 0 -110 -38q-49 -37 -49 -101zM259 735h104
l122 -134h-97l-77 56l-77 -56h-97z" />
    <glyph glyph-name="edieresis" unicode="&#xeb;" horiz-adv-x="618" 
d="M179 618q-17 18 -17 44t18 43.5t43.5 17.5t43.5 -17.5t18 -43.5t-18.5 -44t-44 -18t-43.5 18zM408 600q-25 0 -43 18t-18 43.5t18 43.5t43.5 18t43.5 -17.5t18 -43.5t-18 -44t-44 -18zM576 217h-417q4 -58 53 -93.5t112 -35.5q100 0 152 63l64 -70q-86 -89 -224 -89
q-112 0 -190.5 74.5t-78.5 200t80 199.5t188.5 74t184.5 -65.5t76 -180.5v-77zM159 305h305q0 67 -42 103t-103.5 36t-110.5 -37.5t-49 -101.5z" />
    <glyph glyph-name="igrave" unicode="&#xec;" horiz-adv-x="274" 
d="M200 600h-102l-122 96l118 49zM81 532h112v-532h-112v532z" />
    <glyph glyph-name="iacute" unicode="&#xed;" horiz-adv-x="274" 
d="M190 600h-94l106 140l110 -49zM81 532h112v-532h-112v532z" />
    <glyph glyph-name="icircumflex" unicode="&#xee;" horiz-adv-x="274" 
d="M81 532h112v-532h-112v532zM90 734h104l122 -134h-97l-77 56l-77 -56h-97z" />
    <glyph glyph-name="idieresis" unicode="&#xef;" horiz-adv-x="274" 
d="M9 618q-17 18 -17 44t18 43.5t43.5 17.5t43.5 -17.5t18 -43.5t-18.5 -44t-44 -18t-43.5 18zM238 600q-25 0 -43 18t-18 43.5t18 43.5t43.5 18t43.5 -17.5t18 -43.5t-18 -44t-44 -18zM81 532h112v-532h-112v532z" />
    <glyph glyph-name="eth" unicode="&#xf0;" horiz-adv-x="596" 
d="M399 437q-38 63 -123 148l-93 -59l-57 54l94 60q-2 3 -73 62l95 55q36 -28 73 -63l85 54l59 -54l-88 -57q176 -191 176 -370q0 -123 -65 -199t-177 -76t-183.5 67t-71.5 172.5t70 173t169 67.5q71 0 108 -37zM159 231q0 -58 38.5 -99.5t101 -41.5t101 41.5t38.5 100
t-38.5 100.5t-101 42t-101 -42t-38.5 -101z" />
    <glyph glyph-name="ntilde" unicode="&#xf1;" horiz-adv-x="646" 
d="M193 288v-288h-112v532h112v-97q27 49 74.5 77t102.5 28q90 0 145.5 -55t55.5 -159v-326h-112v292q0 147 -122 147q-58 0 -101 -38.5t-43 -112.5zM405 597q-26 0 -72.5 23.5t-59.5 23.5q-33 0 -34 -44h-74q0 58 23.5 94t65.5 36q27 0 75 -23.5t63 -23.5q30 0 30 44h75
q-3 -130 -92 -130z" />
    <glyph glyph-name="ograve" unicode="&#xf2;" horiz-adv-x="652" 
d="M395 600h-102l-122 96l118 49zM205 140q48 -48 121 -48t120.5 48.5t47.5 125.5t-47.5 125.5t-120.5 48.5t-120.5 -48.5t-47.5 -125.5t47 -126zM526 71q-80 -79 -200 -79t-200 79.5t-80 194.5t80 194.5t200 79.5t200 -79.5t80 -194.5t-80 -195z" />
    <glyph glyph-name="oacute" unicode="&#xf3;" horiz-adv-x="652" 
d="M205 140q48 -48 121 -48t120.5 48.5t47.5 125.5t-47.5 125.5t-120.5 48.5t-120.5 -48.5t-47.5 -125.5t47 -126zM526 71q-80 -79 -200 -79t-200 79.5t-80 194.5t80 194.5t200 79.5t200 -79.5t80 -194.5t-80 -195zM377 600h-102l106 145l118 -49z" />
    <glyph glyph-name="ocircumflex" unicode="&#xf4;" horiz-adv-x="652" 
d="M205 140q48 -48 121 -48t120.5 48.5t47.5 125.5t-47.5 125.5t-120.5 48.5t-120.5 -48.5t-47.5 -125.5t47 -126zM526 71q-80 -79 -200 -79t-200 79.5t-80 194.5t80 194.5t200 79.5t200 -79.5t80 -194.5t-80 -195zM275 734h104l122 -134h-97l-77 56l-77 -56h-97z" />
    <glyph glyph-name="otilde" unicode="&#xf5;" horiz-adv-x="652" 
d="M205 140q48 -48 121 -48t120.5 48.5t47.5 125.5t-47.5 125.5t-120.5 48.5t-120.5 -48.5t-47.5 -125.5t47 -126zM526 71q-80 -79 -200 -79t-200 79.5t-80 194.5t80 194.5t200 79.5t200 -79.5t80 -194.5t-80 -195zM400 597q-26 0 -72.5 23.5t-59.5 23.5q-33 0 -34 -44h-74
q0 58 23.5 94t65.5 36q27 0 75 -23.5t63 -23.5q30 0 30 44h75q-3 -130 -92 -130z" />
    <glyph glyph-name="odieresis" unicode="&#xf6;" horiz-adv-x="652" 
d="M185 618q-17 18 -17 44t18 43.5t43.5 17.5t43.5 -17.5t18 -43.5t-18.5 -44t-44 -18t-43.5 18zM414 600q-25 0 -43 18t-18 43.5t18 43.5t43.5 18t43.5 -17.5t18 -43.5t-18 -44t-44 -18zM205 140q48 -48 121 -48t120.5 48.5t47.5 125.5t-47.5 125.5t-120.5 48.5
t-120.5 -48.5t-47.5 -125.5t47 -126zM526 71q-80 -79 -200 -79t-200 79.5t-80 194.5t80 194.5t200 79.5t200 -79.5t80 -194.5t-80 -195z" />
    <glyph glyph-name="divide" unicode="&#xf7;" horiz-adv-x="568" 
d="M231 158q-21 22 -21 53t21.5 52.5t52.5 21.5t53 -21.5t22 -52.5t-22 -53t-53 -22t-53 22zM231 513q-21 22 -21 53t21.5 52.5t52.5 21.5t53 -21.5t22 -52.5t-22 -53t-53 -22t-53 22zM48 434h472v-94h-472v94z" />
    <glyph glyph-name="oslash" unicode="&#xf8;" horiz-adv-x="652" 
d="M326 -8q-28 0 -65 7l-48 -104h-100l64 137q-61 36 -96 98t-35 136q0 115 80 194.5t200 79.5q44 0 83 -12l44 94h100l-62 -132q54 -38 84.5 -96.5t30.5 -127.5q0 -115 -80 -194.5t-200 -79.5zM221 126l145 310q-17 4 -40 4q-73 0 -120.5 -48.5t-47.5 -132t63 -133.5z
M326 92q73 0 120.5 48.5t47.5 126.5t-49 125l-140 -299q7 -1 21 -1z" />
    <glyph glyph-name="ugrave" unicode="&#xf9;" horiz-adv-x="646" 
d="M393 600h-102l-122 96l118 49zM453 244v288h112v-532h-112v97q-27 -49 -74.5 -77t-102.5 -28q-90 0 -145.5 55t-55.5 159v326h112v-292q0 -147 122 -147q58 0 101 38.5t43 112.5z" />
    <glyph glyph-name="uacute" unicode="&#xfa;" horiz-adv-x="646" 
d="M453 244v288h112v-532h-112v97q-27 -49 -74.5 -77t-102.5 -28q-90 0 -145.5 55t-55.5 159v326h112v-292q0 -147 122 -147q58 0 101 38.5t43 112.5zM350 602h-102l106 145l118 -49z" />
    <glyph glyph-name="ucircumflex" unicode="&#xfb;" horiz-adv-x="646" 
d="M453 244v288h112v-532h-112v97q-27 -49 -74.5 -77t-102.5 -28q-90 0 -145.5 55t-55.5 159v326h112v-292q0 -147 122 -147q58 0 101 38.5t43 112.5zM270 734h104l122 -134h-97l-77 56l-77 -56h-97z" />
    <glyph glyph-name="udieresis" unicode="&#xfc;" horiz-adv-x="646" 
d="M179 618q-17 18 -17 44t18 43.5t43.5 17.5t43.5 -17.5t18 -43.5t-18.5 -44t-44 -18t-43.5 18zM408 600q-25 0 -43 18t-18 43.5t18 43.5t43.5 18t43.5 -17.5t18 -43.5t-18 -44t-44 -18zM453 244v288h112v-532h-112v97q-27 -49 -74.5 -77t-102.5 -28q-90 0 -145.5 55
t-55.5 159v326h112v-292q0 -147 122 -147q58 0 101 38.5t43 112.5z" />
    <glyph glyph-name="yacute" unicode="&#xfd;" horiz-adv-x="574" 
d="M148 -212q-73 0 -132 53l51 91q35 -33 72.5 -33t61 27t23.5 59q0 14 -215 547h120l159 -392l159 392h120l-258 -632q-23 -52 -66 -82t-95 -30zM332 628h-102l106 145l118 -49z" />
    <glyph glyph-name="thorn" unicode="&#xfe;" horiz-adv-x="672" 
d="M363 -8q-82 0 -143 52q-14 12 -20 20l-7 9v-267h-112v936h112v-283q3 3 7.5 8.5t21.5 19.5t36 25q50 28 107 28q116 0 188 -78t72 -197.5t-71.5 -196t-190.5 -76.5zM344 91q68 0 114.5 52.5t46.5 123t-46 123t-114 52.5t-111 -52t-43 -124t43 -123.5t110 -51.5z" />
    <glyph glyph-name="ydieresis" unicode="&#xff;" horiz-adv-x="574" 
d="M155 618q-17 18 -17 44t18 43.5t43.5 17.5t43.5 -17.5t18 -43.5t-18.5 -44t-44 -18t-43.5 18zM384 600q-25 0 -43 18t-18 43.5t18 43.5t43.5 18t43.5 -17.5t18 -43.5t-18 -44t-44 -18zM148 -212q-73 0 -132 53l51 91q35 -33 72.5 -33t61 27t23.5 59q0 14 -215 547h120
l159 -392l159 392h120l-258 -632q-23 -52 -66 -82t-95 -30z" />
    <glyph glyph-name="hbar" unicode="&#x127;" horiz-adv-x="646" 
d="M351 661v-87h-158v-139q24 49 72.5 77t104.5 28q90 0 145.5 -55t55.5 -159v-326h-112v292q0 147 -122 147q-58 0 -101 -38.5t-43 -112.5v-288h-112v574h-37v87h37v80h112v-80h158z" />
    <glyph glyph-name="Itilde" unicode="&#x128;" horiz-adv-x="312" 
d="M97 699h118v-699h-118v699zM228 754q-26 0 -72.5 23.5t-59.5 23.5q-33 0 -34 -44h-74q0 58 23.5 94t65.5 36q27 0 75 -23.5t63 -23.5q30 0 30 44h75q-3 -130 -92 -130z" />
    <glyph glyph-name="itilde" unicode="&#x129;" horiz-adv-x="274" 
d="M81 532h112v-532h-112v532zM220 597q-26 0 -72.5 23.5t-59.5 23.5q-33 0 -34 -44h-74q0 58 23.5 94t65.5 36q27 0 75 -23.5t63 -23.5q30 0 30 44h75q-3 -130 -92 -130z" />
    <glyph glyph-name="dotlessi" unicode="&#x131;" horiz-adv-x="274" 
d="M81 532h112v-532h-112v532z" />
    <glyph glyph-name="ij" unicode="&#x133;" horiz-adv-x="603" 
d="M193 0h-112v532h112v-532zM88 638q-21 21 -21 50t21 50t50 21t50 -21t21 -50t-21 -50t-50 -21t-50 21zM410 -25v557h112v-561q0 -84 -50.5 -133.5t-122 -49.5t-130.5 53l52 84q34 -33 68.5 -33t52.5 22t18 61zM415 638q-21 21 -21 50t21 50t50 21t50 -21t21 -50t-21 -50
t-50 -21t-50 21z" />
    <glyph glyph-name="Jcircumflex" unicode="&#x134;" horiz-adv-x="551" 
d="M120 593v106h340v-461q0 -122 -62 -183t-159 -61q-122 0 -208 86l67 93q68 -65 133 -65q46 0 78.5 31t32.5 93v361h-222zM240 891h104l122 -134h-97l-77 56l-77 -56h-97z" />
    <glyph glyph-name="jcircumflex" unicode="&#x135;" horiz-adv-x="274" 
d="M81 -25v557h112v-561q0 -84 -50.5 -133.5t-122 -49.5t-130.5 53l52 84q34 -33 68.5 -33t52.5 22t18 61zM88 734h104l122 -134h-97l-77 56l-77 -56h-97z" />
    <glyph glyph-name="kcedilla" unicode="&#x137;" horiz-adv-x="581" 
d="M193 0h-112v742h112v-436l216 226h144l-202 -211l217 -321h-136l-158 233l-81 -82v-151zM401 -117q0 -38 -31 -66.5t-78.5 -28.5t-83.5 22l26 57q19 -10 38.5 -10t30.5 11.5t11 27.5t-11.5 28.5t-29 12.5t-29.5 -5l36 68h71l-20 -38q70 -9 70 -79z" />
    <glyph glyph-name="kgreenlandic" unicode="&#x138;" horiz-adv-x="581" 
d="M193 0h-112v532h112v-226l216 226h144l-202 -211l217 -321h-136l-158 233l-81 -82v-151z" />
    <glyph glyph-name="ldot" unicode="&#x140;" horiz-adv-x="403" 
d="M193 0h-112v742h112v-742zM285 266q-21 22 -21 53t21.5 52.5t52.5 21.5t53 -21.5t22 -52.5t-22 -53t-53 -22t-53 22z" />
    <glyph glyph-name="Lslash" unicode="&#x141;" horiz-adv-x="578" 
d="M109 699h118v-337l219 68v-105l-219 -68v-145h319v-112h-437v220l-79 -24v105l79 24v374z" />
    <glyph glyph-name="lslash" unicode="&#x142;" horiz-adv-x="320" 
d="M104 699h112v-324l75 22v-105l-75 -22v-270h-112v239l-82 -23v105l82 23v355z" />
    <glyph glyph-name="Nacute" unicode="&#x143;" horiz-adv-x="836" 
d="M621 699h118v-699h-128l-396 510v-510h-118v699h118l406 -522v522zM471 787h-102l106 145l118 -49z" />
    <glyph glyph-name="nacute" unicode="&#x144;" horiz-adv-x="646" 
d="M193 288v-288h-112v532h112v-97q27 49 74.5 77t102.5 28q90 0 145.5 -55t55.5 -159v-326h-112v292q0 147 -122 147q-58 0 -101 -38.5t-43 -112.5zM365 628h-102l106 145l118 -49z" />
    <glyph glyph-name="OE" unicode="&#x152;" horiz-adv-x="1066" 
d="M1000 699v-111h-373v-185h335v-105h-335v-187h385v-111h-603q-151 0 -253.5 100t-102.5 249.5t102.5 249.5t253.5 100h591zM420 103h89v493h-89q-101 0 -170 -72t-69 -174t69.5 -174.5t169.5 -72.5z" />
    <glyph glyph-name="oe" unicode="&#x153;" horiz-adv-x="1066" 
d="M1024 217h-417q4 -58 53 -93.5t112 -35.5q100 0 152 63l64 -70q-86 -89 -224 -89q-65 0 -122 27t-94 77q-81 -104 -222 -104q-120 0 -200 79.5t-80 194.5t80 194.5t200 79.5q140 0 222 -105q37 51 94.5 78t119.5 27q110 0 186 -65.5t76 -180.5v-77zM205 140
q48 -48 121 -48t120.5 48.5t47.5 125.5t-47.5 125.5t-120.5 48.5t-120.5 -48.5t-47.5 -125.5t47 -126zM607 305h305q0 67 -42 103t-103.5 36t-110.5 -37.5t-49 -101.5z" />
    <glyph glyph-name="Racute" unicode="&#x154;" horiz-adv-x="728" 
d="M655 472q0 -173 -151 -218l183 -254h-150l-167 235h-155v-235h-118v699h260q160 0 229 -54t69 -173zM365 592h-150v-250h147q100 0 136 31t36 99.5t-37 94t-132 25.5zM372 787h-102l106 145l118 -49z" />
    <glyph glyph-name="Rcommaaccent" unicode="&#x156;" horiz-adv-x="728" 
d="M655 472q0 -173 -151 -218l183 -254h-150l-167 235h-155v-235h-118v699h260q160 0 229 -54t69 -173zM365 592h-150v-250h147q100 0 136 31t36 99.5t-37 94t-132 25.5zM261 -250l65 195h111l-80 -195h-96z" />
    <glyph glyph-name="rcommaaccent" unicode="&#x157;" horiz-adv-x="397" 
d="M41 -250l65 195h111l-80 -195h-96zM360 427q-83 0 -125 -54t-42 -145v-228h-112v532h112v-107q27 50 73.5 82t98.5 33l1 -113h-6z" />
    <glyph glyph-name="Rcaron" unicode="&#x158;" horiz-adv-x="728" 
d="M655 472q0 -173 -151 -218l183 -254h-150l-167 235h-155v-235h-118v699h260q160 0 229 -54t69 -173zM365 592h-150v-250h147q100 0 136 31t36 99.5t-37 94t-132 25.5zM396 760h-104l-122 134h97l77 -56l77 56h97z" />
    <glyph glyph-name="rcaron" unicode="&#x159;" horiz-adv-x="397" 
d="M360 427q-83 0 -125 -54t-42 -145v-228h-112v532h112v-107q27 50 73.5 82t98.5 33l1 -113h-6zM268 600h-104l-122 134h97l77 -56l77 56h97z" />
    <glyph glyph-name="Scaron" unicode="&#x160;" horiz-adv-x="634" 
d="M333 -8q-166 0 -293 114l75 89q106 -92 221 -92q57 0 91 24.5t34 65t-32 63.5t-140 49t-164.5 71t-56.5 142t71 149.5t176 52.5q67 0 133.5 -22t114.5 -62l-63 -90q-31 28 -84.5 46t-105.5 18t-85 -21t-33 -63.5t33.5 -65.5t141.5 -49t162.5 -73.5t54.5 -139.5t-69 -149
t-182 -57zM368 760h-104l-122 134h97l77 -56l77 56h97z" />
    <glyph glyph-name="scaron" unicode="&#x161;" horiz-adv-x="506" 
d="M264 -8q-58 0 -120.5 21t-110.5 59l54 87q93 -70 180 -70q38 0 60 17.5t22 44.5q0 40 -106 72q-8 3 -12 4q-166 45 -166 150q0 74 57.5 118.5t149.5 44.5t174 -54l-42 -83q-65 43 -141 43q-40 0 -65 -14.5t-25 -43.5q0 -26 26 -38q18 -9 50.5 -17t57.5 -16t48.5 -18
t50.5 -28q54 -36 54 -112t-55 -121.5t-141 -45.5zM304 600h-104l-122 134h97l77 -56l77 56h97z" />
    <glyph glyph-name="Zcaron" unicode="&#x17d;" horiz-adv-x="675" 
d="M454 591h-394v108h558v-92l-406 -495v-3h412v-109h-577v91l407 497v3zM399 760h-104l-122 134h97l77 -56l77 56h97z" />
    <glyph glyph-name="zcaron" unicode="&#x17e;" horiz-adv-x="541" 
d="M64 434v96h416v-101l-299 -332h315v-97h-452v109l291 325h-271zM325 600h-104l-122 134h97l77 -56l77 56h97z" />
    <glyph glyph-name="florin" unicode="&#x192;" horiz-adv-x="674" 
d="M28 -159l50 84q38 -36 73.5 -36t57 26t26.5 60l49 350h-69l12 93h69l21 156q11 84 68.5 133.5t131.5 49.5t126 -53l-58 -79q-28 35 -64 35t-59.5 -23t-28.5 -60l-22 -159h143l-12 -93h-143l-51 -361q-11 -74 -59 -125t-125 -51t-136 53z" />
    <glyph glyph-name="circumflex" unicode="&#x2c6;" horiz-adv-x="674" 
d="M288 734h104l122 -134h-97l-77 56l-77 -56h-97z" />
    <glyph glyph-name="caron" unicode="&#x2c7;" horiz-adv-x="548" 
d="M326 760h-104l-122 134h97l77 -56l77 56h97z" />
    <glyph glyph-name="breve" unicode="&#x2d8;" horiz-adv-x="542" 
d="M100 726h83q20 -63 88 -63t88 63h83q-5 -70 -51.5 -109t-119.5 -39t-119.5 39t-51.5 109z" />
    <glyph glyph-name="dotaccent" unicode="&#x2d9;" horiz-adv-x="329" 
d="M133 633q-21 22 -21 53t21.5 52.5t52.5 21.5t53 -21.5t22 -52.5t-22 -53t-53 -22t-53 22z" />
    <glyph glyph-name="ring" unicode="&#x2da;" horiz-adv-x="377" 
d="M264 760q33 -31 33 -73t-33 -73t-76 -31t-75.5 31t-32.5 73t32.5 73.5t75.5 31.5t76 -32zM188 632q25 0 40 15.5t15 40t-15 40t-39.5 15.5t-40 -15.5t-15.5 -40t15.5 -40t39.5 -15.5z" />
    <glyph glyph-name="ogonek" unicode="&#x2db;" horiz-adv-x="215" 
d="M109 -49q-23 -38 -23 -67.5t25 -29.5t38 24l48 -34q-34 -56 -91 -56q-36 0 -62 24t-26 64t32 86l21 30h63z" />
    <glyph glyph-name="tilde" unicode="&#x2dc;" horiz-adv-x="519" 
d="M335 739q-26 0 -72.5 23.5t-59.5 23.5q-33 0 -34 -44h-74q0 58 23.5 94t65.5 36q27 0 75 -23.5t63 -23.5q30 0 30 44h75q-3 -130 -92 -130z" />
    <glyph glyph-name="hungarumlaut" unicode="&#x2dd;" horiz-adv-x="506" 
d="M154 601h-102l106 145l118 -49zM348 601h-102l106 145l118 -49z" />
    <glyph glyph-name="pi" unicode="&#x3c0;" horiz-adv-x="746" 
d="M30 373q0 70 44.5 114.5t128.5 44.5h516v-100h-116v-432h-112v432h-153q-4 -99 -24.5 -231.5t-46.5 -200.5h-111q27 81 47.5 209.5t22.5 222.5h-16q-38 0 -60.5 -20t-22.5 -46t8 -44l-84 -35q-21 42 -21 86z" />
    <glyph glyph-name="endash" unicode="&#x2013;" horiz-adv-x="538" 
d="M82 226v67h374v-67h-374z" />
    <glyph glyph-name="emdash" unicode="&#x2014;" horiz-adv-x="725" 
d="M82 227v66h561v-66h-561z" />
    <glyph glyph-name="quoteleft" unicode="&#x2018;" horiz-adv-x="216" 
d="M134 619q28 -18 28 -48.5t-18 -48t-45 -17.5t-45.5 17t-18.5 44.5t18 53.5l59 85h61z" />
    <glyph glyph-name="quoteright" unicode="&#x2019;" horiz-adv-x="217" 
d="M73 586q-27 16 -27 47.5t18 49t45 17.5t45.5 -17t18.5 -44.5t-18 -53.5l-59 -85h-61z" />
    <glyph glyph-name="quotesinglbase" unicode="&#x201a;" horiz-adv-x="217" 
d="M73 5q-27 17 -27 48t18 48.5t45 17.5t45.5 -17t18.5 -44.5t-18 -53.5l-59 -85h-61z" />
    <glyph glyph-name="quotedblleft" unicode="&#x201c;" horiz-adv-x="370" 
d="M134 619q28 -18 28 -48.5t-18 -48t-45 -17.5t-45.5 17t-18.5 44.5t18 53.5l59 85h61zM287 619q28 -18 28 -48.5t-18 -48t-45 -17.5t-45.5 17t-18.5 44.5t18 53.5l59 85h61z" />
    <glyph glyph-name="quotedblright" unicode="&#x201d;" horiz-adv-x="369" 
d="M73 586q-27 16 -27 47.5t18 49t45 17.5t45.5 -17t18.5 -44.5t-18 -53.5l-59 -85h-61zM225 586q-27 16 -27 47.5t18 49t45 17.5t45.5 -17t18.5 -44.5t-18 -53.5l-59 -85h-61z" />
    <glyph glyph-name="quotedblbase" unicode="&#x201e;" horiz-adv-x="369" 
d="M73 5q-27 17 -27 48t18 48.5t45 17.5t45.5 -17t18.5 -44.5t-18 -53.5l-59 -85h-61zM225 5q-27 17 -27 48t18 48.5t45 17.5t45.5 -17t18.5 -44.5t-18 -53.5l-59 -85h-61z" />
    <glyph glyph-name="dagger" unicode="&#x2020;" horiz-adv-x="523" 
d="M206 -194v586h-170v102h170v207h106v-207h176v-102h-176v-586h-106z" />
    <glyph glyph-name="daggerdbl" unicode="&#x2021;" horiz-adv-x="517" 
d="M310 392v-235h107v-82h-107v-269h-106v269h-110v82h110v235h-166v102h166v207h106v-207h170v-102h-170z" />
    <glyph glyph-name="bullet" unicode="&#x2022;" horiz-adv-x="428" 
d="M123 225q-38 38 -38 91t38 91t91 38t91 -38t38 -91t-38 -91t-91 -38t-91 38z" />
    <glyph glyph-name="ellipsis" unicode="&#x2026;" horiz-adv-x="698" 
d="M87 14q-21 22 -21 53t21.5 52.5t52.5 21.5t53 -21.5t22 -52.5t-22 -53t-53 -22t-53 22zM296 14q-21 22 -21 53t21.5 52.5t52.5 21.5t53 -21.5t22 -52.5t-22 -53t-53 -22t-53 22zM505 14q-21 22 -21 53t21.5 52.5t52.5 21.5t53 -21.5t22 -52.5t-22 -53t-53 -22t-53 22z
" />
    <glyph glyph-name="perthousand" unicode="&#x2030;" horiz-adv-x="1166" 
d="M307 666q43 -46 43 -112t-43.5 -113t-108 -47t-107.5 46.5t-43 112.5t43.5 113t108 47t107.5 -47zM714 699l-512 -699h-129l512 699h129zM240 501q16 21 16 51t-17 50.5t-41.5 20.5t-40.5 -20.5t-16 -50.5t17 -50.5t41.5 -20.5t40.5 20zM704 264q43 -46 43 -112
t-43.5 -113t-108 -47t-107.5 46.5t-43 112.5t43.5 113t108 47t107.5 -47zM639 97q16 21 16 51t-17 50.5t-41.5 20.5t-40.5 -20.5t-16 -50.5t17 -50.5t41.5 -20.5t40.5 20zM1087 264q43 -46 43 -112t-43.5 -113t-108 -47t-107.5 46.5t-43 112.5t43.5 113t108 47t107.5 -47z
M1022 97q16 21 16 51t-17 50.5t-41.5 20.5t-40.5 -20.5t-16 -50.5t17 -50.5t41.5 -20.5t40.5 20z" />
    <glyph glyph-name="guilsinglleft" unicode="&#x2039;" horiz-adv-x="349" 
d="M283 416l-115 -176l115 -176h-108l-119 176l119 176h108z" />
    <glyph glyph-name="guilsinglright" unicode="&#x203a;" horiz-adv-x="349" 
d="M181 240l-115 176h108l119 -176l-119 -176h-108z" />
    <glyph glyph-name="fraction" unicode="&#x2044;" horiz-adv-x="635" 
d="M639 699l-512 -699h-129l512 699h129z" />
    <glyph glyph-name="Euro" unicode="&#x20ac;" horiz-adv-x="761" 
d="M52 393v86h104q33 107 117 172t191 65q159 0 252 -115l-71 -90q-44 47 -83.5 66t-97.5 19t-104.5 -30.5t-69.5 -86.5h238v-86h-259q-1 -12 -1 -36.5t3 -46.5h257v-86h-230q54 -104 163 -104q54 0 92.5 20.5t81.5 64.5l71 -86q-93 -115 -245 -115q-104 0 -184.5 59.5
t-115.5 160.5h-109v86h90q-3 24 -3 48t1 35h-88z" />
    <glyph glyph-name="trademark" unicode="&#x2122;" horiz-adv-x="1000" 
d="M252 636v-346h-69v346h-124v63h317v-63h-124zM522 290h-69v409h108l123 -257l124 257h107v-409h-69v319l-143 -284h-39l-142 284v-319z" />
    <glyph glyph-name="Omega" unicode="&#x2126;" horiz-adv-x="906" 
d="M704 111h148v-111h-334v110q81 22 131.5 89.5t50.5 154.5q0 106 -71.5 180t-175.5 74t-175.5 -74t-71.5 -180q0 -87 50.5 -154.5t131.5 -89.5v-110h-334v111h148q-117 103 -117 250.5t106 251t262 103.5t262 -103.5t106 -251t-117 -250.5z" />
    <glyph glyph-name="partialdiff" unicode="&#x2202;" horiz-adv-x="617" 
d="M470 633q41 -41 64 -111t23 -154.5t-14 -148t-44 -116t-84 -82t-127 -29.5q-103 0 -171.5 71t-68.5 173t69 155.5t149 53.5q59 0 105 -21t68 -48q0 101 -40 172q-37 65 -137 65q-30 0 -60 -11t-44 -22l-15 -11l-62 77q90 67 200 67t189 -80zM278 346q-50 0 -84.5 -32
t-34.5 -87.5t34.5 -90.5t94 -35t99.5 40t48 105l2 26q-66 74 -159 74z" />
    <glyph glyph-name="Delta" unicode="&#x2206;" horiz-adv-x="790" 
d="M452 699l308 -699h-730l308 699h114zM206 111l378 -2l-189 426z" />
    <glyph glyph-name="product" unicode="&#x220f;" horiz-adv-x="801" 
d="M709 -212h-124v887h-369v-887h-124v1000h617v-1000z" />
    <glyph glyph-name="summation" unicode="&#x2211;" horiz-adv-x="703" 
d="M663 -212h-626v89l303 417l-290 405v89h593v-113h-414l267 -380l-286 -394h453v-113z" />
    <glyph glyph-name="minus" unicode="&#x2212;" horiz-adv-x="568" 
d="M48 434h472v-94h-472v94z" />
    <glyph glyph-name="radical" unicode="&#x221a;" horiz-adv-x="717" 
d="M24 311v99h183l139 -435l253 782h113l-299 -913h-136l-152 467h-101z" />
    <glyph glyph-name="infinity" unicode="&#x221e;" horiz-adv-x="868" 
d="M630 441q76 0 121.5 -51t45.5 -128.5t-47 -128.5t-124 -51q-62 0 -109 34q-32 24 -83 77q-51 -53 -79 -74q-51 -37 -120.5 -37t-116.5 51t-47 128.5t45.5 128.5t121.5 51q59 0 103.5 -31t92.5 -88q48 57 92.5 88t103.5 31zM238 351q-34 0 -55 -25t-21 -62.5t21.5 -63
t57.5 -25.5q60 0 135 84q-87 92 -138 92zM627 175q36 0 57.5 25.5t21.5 63t-21 62.5t-55 25q-51 0 -138 -92q75 -84 135 -84z" />
    <glyph glyph-name="integral" unicode="&#x222b;" horiz-adv-x="388" 
d="M359 765q-20 10 -39.5 10t-34 -6t-23.5 -20t-14.5 -27.5t-7.5 -39.5q-3 -38 -3 -104t7.5 -228.5t7.5 -236.5t-7 -118.5t-24 -83.5q-35 -81 -132 -81q-46 0 -76 17l16 93q24 -12 48.5 -12t41.5 13t25 41q11 43 11 132t-8 247t-8 230t7.5 117t25.5 83q38 77 139 77
q37 0 61 -13z" />
    <glyph glyph-name="approxequal" unicode="&#x2248;" horiz-adv-x="692" 
d="M603 602q0 -90 -40.5 -139t-104.5 -49q-38 0 -66.5 12t-88.5 49q-33 19 -55 19t-35 -17t-18 -59h-106q0 90 40.5 139t104.5 49q37 0 66 -12t74.5 -40t68.5 -28t36 17t18 59h106zM603 378q0 -90 -40.5 -139t-104.5 -49q-38 0 -66.5 12t-88.5 49q-33 19 -55 19t-35 -17
t-18 -59h-106q0 90 40.5 139t104.5 49q37 0 66 -12t74.5 -40t68.5 -28t36 17t18 59h106z" />
    <glyph glyph-name="notequal" unicode="&#x2260;" horiz-adv-x="635" 
d="M64 333h190l46 99h-236v108h286l75 160h100l-75 -160h118v-108h-168l-46 -99h214v-108h-265l-74 -160h-100l74 160h-139v108z" />
    <glyph glyph-name="lessequal" unicode="&#x2264;" horiz-adv-x="615" 
d="M67 334v126l471 218v-114l-352 -159v-11l352 -163v-114zM67 46h472v-98h-472v98z" />
    <glyph glyph-name="greaterequal" unicode="&#x2265;" horiz-adv-x="615" 
d="M548 460v-126l-471 -217v114l352 163v11l-352 159v114zM76 46h472v-98h-472v98z" />
    <glyph glyph-name="lozenge" unicode="&#x25ca;" horiz-adv-x="650" 
d="M91 33v435h468v-435h-468z" />
    <glyph glyph-name="fi" unicode="&#xfb01;" horiz-adv-x="660" 
d="M219 576v-44h140v-90h-140v-442h-112v442h-67v90h67v41q0 84 50.5 133.5t122 49.5t130.5 -53l-46 -79q-33 35 -69 35t-56 -22.5t-20 -60.5zM579 0h-112v532h112v-532zM474 638q-21 21 -21 50t21 50t50 21t50 -21t21 -50t-21 -50t-50 -21t-50 21z" />
    <glyph glyph-name="fl" unicode="&#xfb02;" horiz-adv-x="660" 
d="M219 576v-44h140v-90h-140v-442h-112v442h-67v90h67v41q0 84 50.5 133.5t122 49.5t130.5 -53l-46 -79q-33 35 -69 35t-56 -22.5t-20 -60.5zM579 0h-112v742h112v-742z" />
    <glyph glyph-name="Abreve" unicode="&#x102;" horiz-adv-x="742" 
d="M196 159l-70 -159h-126l308 699h126l308 -699h-126l-70 159h-350zM498 268l-127 288l-127 -288h254zM216 891h76q16 -57 79 -57q62 0 80 57h75q-5 -63 -47 -98.5t-108 -35.5t-108 35.5t-47 98.5z" />
    <glyph glyph-name="abreve" unicode="&#x103;" 
d="M512 0h-102v71q-66 -79 -177 -79q-82 0 -138 47q-54 46 -54 125t57.5 118t157.5 39h145v20q0 106 -118 106q-75 0 -154 -54l-50 70q98 77 220 77q47 0 86 -11.5t67.5 -36t44 -61.5t15.5 -88v-343zM400 198v45h-126q-121 0 -121 -76q0 -39 29.5 -59.5t83.5 -20.5
q27 0 51.5 8t42.5 22t29 34.5t11 46.5zM152 734h75q18 -57 80 -57t80 57h75q-5 -63 -47 -98.5t-108 -35.5t-108 35.5t-47 98.5z" />
    <glyph glyph-name="Dcroat" unicode="&#x110;" horiz-adv-x="782" 
d="M26 294v105h79v300h240q188 0 289 -91.5t101 -254.5t-98 -258t-300 -95h-232v294h-79zM616 350q0 240 -275 240h-118v-191h250v-105h-250v-183h131q127 0 194.5 60.5t67.5 178.5z" />
    <glyph glyph-name="dcroat" unicode="&#x111;" horiz-adv-x="672" 
d="M479 450v114h-139v105h139v73h112v-73h81v-105h-81v-564h-112v80q-62 -88 -181 -88q-101 0 -176 76t-75 200t77 198t183.5 74t171.5 -90zM159 263q0 -76 49 -124t115 -48t112 48.5t46 124.5t-46 127t-113 51t-115 -51t-48 -128z" />
    <glyph glyph-name="Ohorn" unicode="&#x1a0;" horiz-adv-x="840" 
d="M682 613q106 -103 106 -258t-106 -258t-262 -103t-262 103t-106 258t106 258q107 104 262 104q74 0 139 -24q15 3 26.5 13t9.5 27q0 13 -6.5 22t-18 13.5t-26 3t-29.5 -9.5l-26 57q35 22 83 22q47 0 79 -29q31 -28 31 -66q0 -70 -70 -79q36 -22 70 -54zM595 176
q72 73 72 179t-72 180q-71 74 -175 74t-176 -74q-71 -74 -71 -180q0 -105 71 -179q72 -74 176 -74t175 74z" />
    <glyph glyph-name="ohorn" unicode="&#x1a1;" horiz-adv-x="652" 
d="M526 460q80 -80 80 -194q0 -115 -80 -195q-79 -79 -200 -79t-200 79q-80 80 -80 195q0 114 80 194t200 80q55 0 102 -18q15 4 26.5 14t9.5 27q0 13 -6.5 22t-18 13.5t-26 3t-29.5 -9.5l-26 57q35 22 83 22q47 0 79 -29q31 -28 31 -66q0 -70 -70 -79v-1q24 -15 45 -36z
M446 140q48 49 48 126t-48 125q-46 49 -120 49q-73 0 -121 -49q-47 -49 -47 -125t47 -126q48 -48 121 -48t120 48z" />
    <glyph glyph-name="Uhorn" unicode="&#x1af;" horiz-adv-x="768" 
d="M750 740q0 -70 -70 -79v-354q0 -150 -83 -233q-83 -81 -213 -81q-131 0 -213 81q-83 83 -83 233v392h118v-387q0 -96 48 -152t130 -56t130 56t48 152v387h90q12 12 11 28q0 13 -6.5 22t-18 13.5t-26 3t-29.5 -9.5l-26 57q35 22 83 22q47 0 79 -29q31 -28 31 -66z" />
    <glyph glyph-name="uhorn" unicode="&#x1b0;" horiz-adv-x="646" 
d="M635 576q0 -70 -70 -79v-497h-112v97q-27 -49 -74.5 -77t-102.5 -28q-45 0 -82 14t-63.5 41t-41 67t-14.5 92v326h112v-292q0 -147 122 -147q57 0 101 38q43 39 43 113v288h80q7 5 11.5 12.5t3.5 18.5q0 13 -6.5 22t-18 13.5t-26 3t-29.5 -9.5l-26 57q35 22 83 22
q47 0 79 -29q31 -28 31 -66z" />
    <glyph glyph-name="uni1EA0" unicode="&#x1ea0;" horiz-adv-x="742" 
d="M422 699l308 -699h-130l-71 159h-335l-68 -159h-126l308 699h114zM482 268l-120 269l-119 -269h239zM312 -186q-21 22 -21 53t21 52q22 22 53 22t53 -22q22 -21 22 -52t-22 -53t-53 -22t-53 22z" />
    <glyph glyph-name="uni1EA1" unicode="&#x1ea1;" 
d="M512 0h-102v71q-66 -79 -177 -79q-82 0 -138 47q-54 46 -54 125t57.5 118t157.5 39h145v20q0 106 -118 106q-75 0 -154 -54l-50 70q98 77 220 77q47 0 86 -11.5t67.5 -36t44 -61.5t15.5 -88v-343zM400 198v45h-126q-121 0 -121 -76q0 -39 29.5 -59.5t83.5 -20.5
q27 0 51.5 8t42.5 22t29 34.5t11 46.5zM223 -193q-21 22 -21 53t21 52q22 22 53 22t53 -22q22 -21 22 -52t-22 -53t-53 -22t-53 22z" />
    <glyph glyph-name="uni1EA2" unicode="&#x1ea2;" horiz-adv-x="742" 
d="M422 699l308 -699h-130l-71 159h-335l-68 -159h-126l308 699h114zM482 268l-120 269l-119 -269h239zM402 792v-35h-87v65q9 -5 21.5 -5t23.5 4.5t18.5 13.5t6.5 23q0 13 -6.5 22t-18 13.5t-26 3t-29.5 -9.5l-26 57q35 22 83 22q47 0 79 -29q31 -28 31 -66q0 -70 -70 -79z
" />
    <glyph glyph-name="uni1EA3" unicode="&#x1ea3;" 
d="M512 0h-102v71q-66 -79 -177 -79q-82 0 -138 47q-54 46 -54 125t57.5 118t157.5 39h145v20q0 106 -118 106q-75 0 -154 -54l-50 70q98 77 220 77q47 0 86 -11.5t67.5 -36t44 -61.5t15.5 -88v-343zM400 198v45h-126q-121 0 -121 -76q0 -39 29.5 -59.5t83.5 -20.5
q27 0 51.5 8t42.5 22t29 34.5t11 46.5zM343 635v-35h-87v65q9 -5 21.5 -5t23.5 4.5t18.5 13.5t6.5 23q0 13 -6.5 22t-18 13.5t-26 3t-29.5 -9.5l-26 57q35 22 83 22q47 0 79 -29q31 -28 31 -66q0 -70 -70 -79z" />
    <glyph glyph-name="uni1EA4" unicode="&#x1ea4;" horiz-adv-x="730" 
d="M422 699l308 -699h-130l-71 159h-335l-68 -159h-126l308 699h114zM482 268l-120 269l-119 -269h239zM313 891h104l122 -134h-97l-77 56l-77 -56h-97zM616 835h-102l106 145l118 -49z" />
    <glyph glyph-name="uni1EA5" unicode="&#x1ea5;" 
d="M512 0h-102v71q-66 -79 -177 -79q-82 0 -138 47q-54 46 -54 125t57.5 118t157.5 39h145v20q0 106 -118 106q-75 0 -154 -54l-50 70q98 77 220 77q47 0 86 -11.5t67.5 -36t44 -61.5t15.5 -88v-343zM400 198v45h-126q-121 0 -121 -76q0 -39 29.5 -59.5t83.5 -20.5
q27 0 51.5 8t42.5 22t29 34.5t11 46.5zM254 734h104l122 -134h-97l-77 56l-77 -56h-97zM557 677h-102l106 145l118 -49z" />
    <glyph glyph-name="uni1EA6" unicode="&#x1ea6;" horiz-adv-x="730" 
d="M422 699l308 -699h-130l-71 159h-335l-68 -159h-126l308 699h114zM482 268l-120 269l-119 -269h239zM313 891h104l122 -134h-97l-77 56l-77 -56h-97zM453 931l118 49l106 -145h-102z" />
    <glyph glyph-name="uni1EA7" unicode="&#x1ea7;" 
d="M513 0h-102v71q-66 -79 -177 -79q-82 0 -138 47q-54 46 -54 125t57.5 118t157.5 39h145v20q0 106 -118 106q-75 0 -154 -54l-50 70q98 77 220 77q47 0 86 -11.5t67.5 -36t44 -61.5t15.5 -88v-343zM401 198v45h-126q-121 0 -121 -76q0 -39 29.5 -59.5t83.5 -20.5
q27 0 51.5 8t42.5 22t29 34.5t11 46.5zM255 734h104l122 -134h-97l-77 56l-77 -56h-97zM396 773l118 49l106 -145h-102z" />
    <glyph glyph-name="uni1EA8" unicode="&#x1ea8;" horiz-adv-x="730" 
d="M422 699l308 -699h-130l-71 159h-335l-68 -159h-126l308 699h114zM482 268l-120 269l-119 -269h239zM313 891h104l122 -134h-97l-77 56l-77 -56h-97zM590 870v-35h-87v65q9 -5 21.5 -5t23.5 4.5t18.5 13.5t6.5 23q0 13 -6.5 22t-18 13.5t-26 3t-29.5 -9.5l-26 57
q35 22 83 22q47 0 79 -29q31 -28 31 -66q0 -70 -70 -79z" />
    <glyph glyph-name="uni1EA9" unicode="&#x1ea9;" 
d="M512 0h-102v71q-66 -79 -177 -79q-82 0 -138 47q-54 46 -54 125t57.5 118t157.5 39h145v20q0 106 -118 106q-75 0 -154 -54l-50 70q98 77 220 77q47 0 86 -11.5t67.5 -36t44 -61.5t15.5 -88v-343zM400 198v45h-126q-121 0 -121 -76q0 -39 29.5 -59.5t83.5 -20.5
q27 0 51.5 8t42.5 22t29 34.5t11 46.5zM254 734h104l122 -134h-97l-77 56l-77 -56h-97zM532 712v-35h-87v65q9 -5 21.5 -5t23.5 4.5t18.5 13.5t6.5 23q0 13 -6.5 22t-18 13.5t-26 3t-29.5 -9.5l-26 57q35 22 83 22q47 0 79 -29q31 -28 31 -66q0 -70 -70 -79z" />
    <glyph glyph-name="uni1EAA" unicode="&#x1eaa;" horiz-adv-x="730" 
d="M422 699l308 -699h-130l-71 159h-335l-68 -159h-126l308 699h114zM482 268l-120 269l-119 -269h239zM439 931q-25 0 -73 23q-47 24 -59 24q-32 0 -34 -44h-74q0 58 23.5 94t65.5 36q27 0 75 -24q49 -23 63 -23q30 0 30 44h75q-3 -130 -92 -130zM313 891h104l122 -134h-97
l-77 56l-77 -56h-97z" />
    <glyph glyph-name="uni1EAB" unicode="&#x1eab;" 
d="M511 0h-102v71q-66 -79 -177 -79q-82 0 -138 47q-54 46 -54 125t57.5 118t157.5 39h145v20q0 106 -118 106q-75 0 -154 -54l-50 70q98 77 220 77q47 0 86 -11.5t67.5 -36t44 -61.5t15.5 -88v-343zM399 198v45h-126q-121 0 -121 -76q0 -39 29.5 -59.5t83.5 -20.5
q27 0 51.5 8t42.5 22t29 34.5t11 46.5zM379 774q-25 0 -73 23q-47 24 -59 24q-32 0 -34 -44h-74q0 58 23.5 94t65.5 36q27 0 75 -24q49 -23 63 -23q30 0 30 44h75q-3 -130 -92 -130zM253 734h104l122 -134h-97l-77 56l-77 -56h-97z" />
    <glyph glyph-name="uni1EAC" unicode="&#x1eac;" horiz-adv-x="742" 
d="M422 699l308 -699h-130l-71 159h-335l-68 -159h-126l308 699h114zM482 268l-120 269l-119 -269h239zM313 891h104l122 -134h-97l-77 56l-77 -56h-97zM312 -185q-21 22 -21 53t21 52q22 22 53 22t53 -22q22 -21 22 -52t-22 -53t-53 -22t-53 22z" />
    <glyph glyph-name="uni1EAD" unicode="&#x1ead;" 
d="M512 0h-102v71q-66 -79 -177 -79q-82 0 -138 47q-54 46 -54 125t57.5 118t157.5 39h145v20q0 106 -118 106q-75 0 -154 -54l-50 70q98 77 220 77q47 0 86 -11.5t67.5 -36t44 -61.5t15.5 -88v-343zM400 198v45h-126q-121 0 -121 -76q0 -39 29.5 -59.5t83.5 -20.5
q27 0 51.5 8t42.5 22t29 34.5t11 46.5zM254 734h104l122 -134h-97l-77 56l-77 -56h-97zM223 -193q-21 22 -21 53t21 52q22 22 53 22t53 -22q22 -21 22 -52t-22 -53t-53 -22t-53 22z" />
    <glyph glyph-name="uni1EAE" unicode="&#x1eae;" horiz-adv-x="742" 
d="M196 159l-70 -159h-126l308 699h126l308 -699h-126l-70 159h-350zM498 268l-127 288l-127 -288h254zM216 891h76q16 -57 79 -57q62 0 80 57h75q-5 -63 -47 -98.5t-108 -35.5t-108 35.5t-47 98.5zM421 885h-102l106 145l118 -49zM196 159l-70 -159h-126l308 699h126
l308 -699h-126l-70 159h-350zM498 268l-127 288l-127 -288h254z" />
    <glyph glyph-name="uni1EAF" unicode="&#x1eaf;" 
d="M512 0h-102v71q-66 -79 -177 -79q-82 0 -138 47q-54 46 -54 125t57.5 118t157.5 39h145v20q0 106 -118 106q-75 0 -154 -54l-50 70q98 77 220 77q47 0 86 -11.5t67.5 -36t44 -61.5t15.5 -88v-343zM400 198v45h-126q-121 0 -121 -76q0 -39 29.5 -59.5t83.5 -20.5
q27 0 51.5 8t42.5 22t29 34.5t11 46.5zM151 734h75q18 -57 80 -57t80 57h75q-5 -63 -47 -98.5t-108 -35.5t-108 35.5t-47 98.5zM356 727h-102l106 145l118 -49z" />
    <glyph glyph-name="u1EAB0" unicode="&#x1eab0;" horiz-adv-x="0" 
 />
    <glyph glyph-name="uni1EB1" unicode="&#x1eb1;" 
d="M512 0h-102v71q-66 -79 -177 -79q-82 0 -138 47q-54 46 -54 125t57.5 118t157.5 39h145v20q0 106 -118 106q-75 0 -154 -54l-50 70q98 77 220 77q47 0 86 -11.5t67.5 -36t44 -61.5t15.5 -88v-343zM400 198v45h-126q-121 0 -121 -76q0 -39 29.5 -59.5t83.5 -20.5
q27 0 51.5 8t42.5 22t29 34.5t11 46.5zM151 734h75q18 -57 80 -57t80 57h75q-5 -63 -47 -98.5t-108 -35.5t-108 35.5t-47 98.5zM144 823l118 49l106 -145h-102z" />
    <glyph glyph-name="uni1EB2" unicode="&#x1eb2;" horiz-adv-x="742" 
d="M196 159l-70 -159h-126l308 699h126l308 -699h-126l-70 159h-350zM498 268l-127 288l-127 -288h254zM216 891h76q16 -57 79 -57q62 0 80 57h75q-5 -63 -47 -98.5t-108 -35.5t-108 35.5t-47 98.5zM418 920v-35h-87v65q9 -5 21.5 -5t23.5 4.5t18.5 13.5t6.5 23
q0 13 -6.5 22t-18 13.5t-26 3t-29.5 -9.5l-26 57q35 22 83 22q47 0 79 -29q31 -28 31 -66q0 -70 -70 -79z" />
    <glyph glyph-name="uni1EB3" unicode="&#x1eb3;" 
d="M512 0h-102v71q-66 -79 -177 -79q-82 0 -138 47q-54 46 -54 125t57.5 118t157.5 39h145v20q0 106 -118 106q-75 0 -154 -54l-50 70q98 77 220 77q47 0 86 -11.5t67.5 -36t44 -61.5t15.5 -88v-343zM400 198v45h-126q-121 0 -121 -76q0 -39 29.5 -59.5t83.5 -20.5
q27 0 51.5 8t42.5 22t29 34.5t11 46.5zM152 734h75q18 -57 80 -57t80 57h75q-5 -63 -47 -98.5t-108 -35.5t-108 35.5t-47 98.5zM353 762v-35h-87v65q9 -5 21.5 -5t23.5 4.5t18.5 13.5t6.5 23q0 13 -6.5 22t-18 13.5t-26 3t-29.5 -9.5l-26 57q35 22 83 22q47 0 79 -29
q31 -28 31 -66q0 -70 -70 -79z" />
    <glyph glyph-name="uni1EB4" unicode="&#x1eb4;" horiz-adv-x="742" 
d="M196 159l-70 -159h-126l308 699h126l308 -699h-126l-70 159h-350zM498 268l-127 288l-127 -288h254zM445 932q-25 0 -73 23q-47 24 -59 24q-32 0 -34 -44h-74q0 58 23.5 94t65.5 36q27 0 75 -24q49 -23 63 -23q30 0 30 44h75q-3 -130 -92 -130zM216 891h76q16 -57 79 -57
q62 0 80 57h75q-5 -63 -47 -98.5t-108 -35.5t-108 35.5t-47 98.5z" />
    <glyph glyph-name="uni1EB5" unicode="&#x1eb5;" 
d="M512 0h-102v71q-66 -79 -177 -79q-82 0 -138 47q-54 46 -54 125t57.5 118t157.5 39h145v20q0 106 -118 106q-75 0 -154 -54l-50 70q98 77 220 77q47 0 86 -11.5t67.5 -36t44 -61.5t15.5 -88v-343zM400 198v45h-126q-121 0 -121 -76q0 -39 29.5 -59.5t83.5 -20.5
q27 0 51.5 8t42.5 22t29 34.5t11 46.5zM381 774q-25 0 -73 23q-47 24 -59 24q-32 0 -34 -44h-74q0 58 23.5 94t65.5 36q27 0 75 -24q49 -23 63 -23q30 0 30 44h75q-3 -130 -92 -130zM152 734h75q18 -57 80 -57t80 57h75q-5 -63 -47 -98.5t-108 -35.5t-108 35.5t-47 98.5z
" />
    <glyph glyph-name="uni1EB6" unicode="&#x1eb6;" horiz-adv-x="742" 
d="M196 159l-70 -159h-126l308 699h126l308 -699h-126l-70 159h-350zM498 268l-127 288l-127 -288h254zM216 891h76q16 -57 79 -57q62 0 80 57h75q-5 -63 -47 -98.5t-108 -35.5t-108 35.5t-47 98.5zM318 -185q-21 22 -21 53t21 52q22 22 53 22t53 -22q22 -21 22 -52t-22 -53
t-53 -22t-53 22z" />
    <glyph glyph-name="uni1EB7" unicode="&#x1eb7;" 
d="M512 0h-102v71q-66 -79 -177 -79q-82 0 -138 47q-54 46 -54 125t57.5 118t157.5 39h145v20q0 106 -118 106q-75 0 -154 -54l-50 70q98 77 220 77q47 0 86 -11.5t67.5 -36t44 -61.5t15.5 -88v-343zM400 198v45h-126q-121 0 -121 -76q0 -39 29.5 -59.5t83.5 -20.5
q27 0 51.5 8t42.5 22t29 34.5t11 46.5zM152 734h75q18 -57 80 -57t80 57h75q-5 -63 -47 -98.5t-108 -35.5t-108 35.5t-47 98.5zM223 -193q-21 22 -21 53t21 52q22 22 53 22t53 -22q22 -21 22 -52t-22 -53t-53 -22t-53 22z" />
    <glyph glyph-name="uni1EB8" unicode="&#x1eb8;" horiz-adv-x="654" 
d="M588 699v-111h-373v-185h335v-105h-335v-187h385v-111h-503v699h491zM296 -186q-21 22 -21 53t21 52q22 22 53 22t53 -22q22 -21 22 -52t-22 -53t-53 -22t-53 22z" />
    <glyph glyph-name="uni1EB9" unicode="&#x1eb9;" horiz-adv-x="618" 
d="M576 217h-417q5 -59 53 -94q50 -35 112 -35q99 0 152 63l64 -70q-86 -89 -224 -89q-111 0 -191 74q-78 75 -78 200q0 126 80 200t188 74t185 -66q76 -64 76 -180v-77zM159 305h305q0 33 -11 59t-30.5 44t-46.5 27t-58 9q-60 0 -110 -38q-49 -37 -49 -101zM259 -195
q-21 22 -21 53t21 52q22 22 53 22t53 -22q22 -21 22 -52t-22 -53t-53 -22t-53 22z" />
    <glyph glyph-name="uni1EBA" unicode="&#x1eba;" horiz-adv-x="654" 
d="M588 699v-111h-373v-185h335v-105h-335v-187h385v-111h-503v699h491zM395 791v-35h-87v65q9 -5 21.5 -5t23.5 4.5t18.5 13.5t6.5 23q0 13 -6.5 22t-18 13.5t-26 3t-29.5 -9.5l-26 57q35 22 83 22q47 0 79 -29q31 -28 31 -66q0 -70 -70 -79z" />
    <glyph glyph-name="uni1EBB" unicode="&#x1ebb;" horiz-adv-x="618" 
d="M576 217h-417q5 -59 53 -94q50 -35 112 -35q99 0 152 63l64 -70q-86 -89 -224 -89q-111 0 -191 74q-78 75 -78 200q0 126 80 200t188 74t185 -66q76 -64 76 -180v-77zM159 305h305q0 33 -11 59t-30.5 44t-46.5 27t-58 9q-60 0 -110 -38q-49 -37 -49 -101zM368 635v-35
h-87v65q9 -5 21.5 -5t23.5 4.5t18.5 13.5t6.5 23q0 13 -6.5 22t-18 13.5t-26 3t-29.5 -9.5l-26 57q35 22 83 22q47 0 79 -29q31 -28 31 -66q0 -70 -70 -79z" />
    <glyph glyph-name="uni1EBC" unicode="&#x1ebc;" horiz-adv-x="654" 
d="M588 699v-111h-373v-185h335v-105h-335v-187h385v-111h-503v699h491zM423 753q-25 0 -73 23q-47 24 -59 24q-32 0 -34 -44h-74q0 58 23.5 94t65.5 36q27 0 75 -24q49 -23 63 -23q30 0 30 44h75q-3 -130 -92 -130z" />
    <glyph glyph-name="uni1EBD" unicode="&#x1ebd;" horiz-adv-x="618" 
d="M576 217h-417q5 -59 53 -94q50 -35 112 -35q99 0 152 63l64 -70q-86 -89 -224 -89q-111 0 -191 74q-78 75 -78 200q0 126 80 200t188 74t185 -66q76 -64 76 -180v-77zM159 305h305q0 33 -11 59t-30.5 44t-46.5 27t-58 9q-60 0 -110 -38q-49 -37 -49 -101zM386 597
q-25 0 -73 23q-47 24 -59 24q-32 0 -34 -44h-74q0 58 23.5 94t65.5 36q27 0 75 -24q49 -23 63 -23q30 0 30 44h75q-3 -130 -92 -130z" />
    <glyph glyph-name="uni1EBE" unicode="&#x1ebe;" horiz-adv-x="654" 
d="M588 699v-111h-373v-185h335v-105h-335v-187h385v-111h-503v699h491zM296 890h104l122 -134h-97l-77 56l-77 -56h-97zM599 834h-102l106 145l118 -49z" />
    <glyph glyph-name="uni1EBF" unicode="&#x1ebf;" horiz-adv-x="618" 
d="M576 217h-417q5 -59 53 -94q50 -35 112 -35q99 0 152 63l64 -70q-86 -89 -224 -89q-111 0 -191 74q-78 75 -78 200q0 126 80 200t188 74t185 -66q76 -64 76 -180v-77zM159 305h305q0 33 -11 59t-30.5 44t-46.5 27t-58 9q-60 0 -110 -38q-49 -37 -49 -101zM259 735h104
l122 -134h-97l-77 56l-77 -56h-97zM562 679h-102l106 145l118 -49z" />
    <glyph glyph-name="uni1EC0" unicode="&#x1ec0;" horiz-adv-x="654" 
d="M588 699v-111h-373v-185h335v-105h-335v-187h385v-111h-503v699h491zM296 890h104l122 -134h-97l-77 56l-77 -56h-97zM436 930l118 49l106 -145h-102z" />
    <glyph glyph-name="uni1EC1" unicode="&#x1ec1;" horiz-adv-x="618" 
d="M576 217h-417q5 -59 53 -94q50 -35 112 -35q99 0 152 63l64 -70q-86 -89 -224 -89q-111 0 -191 74q-78 75 -78 200q0 126 80 200t188 74t185 -66q76 -64 76 -180v-77zM159 305h305q0 33 -11 59t-30.5 44t-46.5 27t-58 9q-60 0 -110 -38q-49 -37 -49 -101zM259 735h104
l122 -134h-97l-77 56l-77 -56h-97zM400 775l118 49l106 -145h-102z" />
    <glyph glyph-name="uni1EC2" unicode="&#x1ec2;" horiz-adv-x="654" 
d="M588 699v-111h-373v-185h335v-105h-335v-187h385v-111h-503v699h491zM297 890h104l122 -134h-97l-77 56l-77 -56h-97zM574 869v-35h-87v65q9 -5 21.5 -5t23.5 4.5t18.5 13.5t6.5 23q0 13 -6.5 22t-18 13.5t-26 3t-29.5 -9.5l-26 57q35 22 83 22q47 0 79 -29
q31 -28 31 -66q0 -70 -70 -79z" />
    <glyph glyph-name="uni1EC3" unicode="&#x1ec3;" horiz-adv-x="618" 
d="M576 217h-417q5 -59 53 -94q50 -35 112 -35q99 0 152 63l64 -70q-86 -89 -224 -89q-111 0 -191 74q-78 75 -78 200q0 126 80 200t188 74t185 -66q76 -64 76 -180v-77zM159 305h305q0 33 -11 59t-30.5 44t-46.5 27t-58 9q-60 0 -110 -38q-49 -37 -49 -101zM260 735h104
l122 -134h-97l-77 56l-77 -56h-97zM537 714v-35h-87v65q9 -5 21.5 -5t23.5 4.5t18.5 13.5t6.5 23q0 13 -6.5 22t-18 13.5t-26 3t-29.5 -9.5l-26 57q35 22 83 22q47 0 79 -29q31 -28 31 -66q0 -70 -70 -79z" />
    <glyph glyph-name="uni1EC4" unicode="&#x1ec4;" horiz-adv-x="654" 
d="M588 699v-111h-373v-185h335v-105h-335v-187h385v-111h-503v699h491zM422 931q-25 0 -73 23q-47 24 -59 24q-32 0 -34 -44h-74q0 58 23.5 94t65.5 36q27 0 75 -24q49 -23 63 -23q30 0 30 44h75q-3 -130 -92 -130zM296 890h104l122 -134h-97l-77 56l-77 -56h-97z" />
    <glyph glyph-name="uni1EC5" unicode="&#x1ec5;" horiz-adv-x="618" 
d="M576 217h-417q5 -59 53 -94q50 -35 112 -35q99 0 152 63l64 -70q-86 -89 -224 -89q-111 0 -191 74q-78 75 -78 200q0 126 80 200t188 74t185 -66q76 -64 76 -180v-77zM159 305h305q0 33 -11 59t-30.5 44t-46.5 27t-58 9q-60 0 -110 -38q-49 -37 -49 -101zM386 776
q-25 0 -73 23q-47 24 -59 24q-32 0 -34 -44h-74q0 58 23.5 94t65.5 36q27 0 75 -24q49 -23 63 -23q30 0 30 44h75q-3 -130 -92 -130zM260 735h104l122 -134h-97l-77 56l-77 -56h-97z" />
    <glyph glyph-name="uni1EC6" unicode="&#x1ec6;" horiz-adv-x="654" 
d="M588 699v-111h-373v-185h335v-105h-335v-187h385v-111h-503v699h491zM296 890h104l122 -134h-97l-77 56l-77 -56h-97zM295 -185q-21 22 -21 53t21 52q22 22 53 22t53 -22q22 -21 22 -52t-22 -53t-53 -22t-53 22z" />
    <glyph glyph-name="uni1EC7" unicode="&#x1ec7;" horiz-adv-x="618" 
d="M576 217h-417q5 -59 53 -94q50 -35 112 -35q99 0 152 63l64 -70q-86 -89 -224 -89q-111 0 -191 74q-78 75 -78 200q0 126 80 200t188 74t185 -66q76 -64 76 -180v-77zM159 305h305q0 33 -11 59t-30.5 44t-46.5 27t-58 9q-60 0 -110 -38q-49 -37 -49 -101zM260 735h104
l122 -134h-97l-77 56l-77 -56h-97zM258 -195q-21 22 -21 53t21 52q22 22 53 22t53 -22q22 -21 22 -52t-22 -53t-53 -22t-53 22z" />
    <glyph glyph-name="uni1EC8" unicode="&#x1ec8;" horiz-adv-x="312" 
d="M97 699h118v-699h-118v699zM202 792v-35h-87v65q9 -5 21.5 -5t23.5 4.5t18.5 13.5t6.5 23q0 13 -6.5 22t-18 13.5t-26 3t-29.5 -9.5l-26 57q35 22 83 22q47 0 79 -29q31 -28 31 -66q0 -70 -70 -79z" />
    <glyph glyph-name="uni1EC9" unicode="&#x1ec9;" horiz-adv-x="274" 
d="M193 0h-112v532h112v-532zM184 628v-35h-87v65q9 -5 21.5 -5t23.5 4.5t18.5 13.5t6.5 23q0 13 -6.5 22t-18 13.5t-26 3t-29.5 -9.5l-26 57q35 22 83 22q47 0 79 -29q31 -28 31 -66q0 -70 -70 -79z" />
    <glyph glyph-name="uni1ECA" unicode="&#x1eca;" horiz-adv-x="312" 
d="M97 699h118v-699h-118v699zM103 -184q-21 22 -21 53t21 52q22 22 53 22t53 -22q22 -21 22 -52t-22 -53t-53 -22t-53 22z" />
    <glyph glyph-name="uni1ECB" unicode="&#x1ecb;" horiz-adv-x="274" 
d="M193 0h-112v532h112v-532zM85 -203l-2 2l-4 5l-5 7l-3 6l-4 10q0 1 -0.5 1.5t-0.5 1.5q-1 4 -1.5 7t-0.5 7q-1 11 2 23q0 2 0.5 3t0.5 3q3 8 7 15.5t11 13.5l9 8q4 4 10 6q3 2 5.5 3t5.5 2q15 5 31 3q2 0 3 -0.5t3 -0.5l9 -2q16 -5 28 -17l2 -2l2 -2q7 -7 12 -17
q2 -2 2 -5q2 -3 4 -11q0 -2 0.5 -4t0.5 -4q2 -14 -1 -23v-3q-2 -8 -4 -11q0 -1 -2 -5q-2 -5 -5 -9.5t-7 -8.5q-2 0 -2 -2q-14 -12 -25 -16q-3 -2 -11 -4h-3q-9 -3 -23 -1q-4 0 -6 1h-2q-15 3 -27 12zM88 638q-21 21 -21 50t21 50t50 21t50 -21t21 -50t-21 -50t-50 -21
t-50 21z" />
    <glyph glyph-name="uni1ECC" unicode="&#x1ecc;" horiz-adv-x="840" 
d="M682 96q-106 -103 -262 -103t-262 103t-106 258t106 258q107 104 262 104t262 -104q106 -103 106 -258t-106 -258zM595 534q-71 74 -175 74t-176 -74q-71 -74 -71 -180q0 -105 71 -179q72 -74 176 -74t175 74q72 73 72 179t-72 180zM367 -180q-21 22 -21 53t21 52
q22 22 53 22t53 -22q22 -21 22 -52t-22 -53t-53 -22t-53 22z" />
    <glyph glyph-name="uni1ECD" unicode="&#x1ecd;" horiz-adv-x="652" 
d="M526 71q-79 -79 -200 -79t-200 79q-80 80 -80 195q0 114 80 194t200 80t200 -80t80 -194q0 -115 -80 -195zM205 140q48 -48 121 -48t120 48q48 49 48 126t-48 125q-46 49 -120 49q-73 0 -121 -49q-47 -49 -47 -125t47 -126zM273 -203q-21 22 -21 53t21 52q22 22 53 22
t53 -22q22 -21 22 -52t-22 -53t-53 -22t-53 22z" />
    <glyph glyph-name="uni1EDE" unicode="&#x1ede;" horiz-adv-x="840" 
d="M682 612q-34 32 -70 54q70 9 70 79q0 38 -31 66q-32 29 -79 29q-48 0 -83 -22l26 -57q15 8 29.5 9.5t26 -3t18 -13.5t6.5 -22q2 -17 -10 -27t-27 -13q-63 24 -138 24q-155 0 -262 -104q-106 -103 -106 -258t106 -258t262 -103t262 103t106 258t-106 258zM595 175
q-71 -74 -175 -74t-176 74q-71 74 -71 179q0 106 71 180q72 74 176 74t175 -74q72 -74 72 -180t-72 -179zM431 798v-35h-87v65q9 -5 21.5 -5t23.5 4.5t18.5 13.5t6.5 23q0 13 -6.5 22t-18 13.5t-26 3t-29.5 -9.5l-26 57q35 22 83 22q47 0 79 -29q31 -28 31 -66
q0 -70 -70 -79z" />
    <glyph glyph-name="uni1ECE" unicode="&#x1ece;" horiz-adv-x="840" 
d="M682 96q-106 -103 -262 -103t-262 103t-106 258t106 258q107 104 262 104t262 -104q106 -103 106 -258t-106 -258zM595 534q-71 74 -175 74t-176 -74q-71 -74 -71 -180q0 -105 71 -179q72 -74 176 -74t175 74q72 73 72 179t-72 180zM466 797v-35h-87v65q9 -5 21.5 -5
t23.5 4.5t18.5 13.5t6.5 23q0 13 -6.5 22t-18 13.5t-26 3t-29.5 -9.5l-26 57q35 22 83 22q47 0 79 -29q31 -28 31 -66q0 -70 -70 -79z" />
    <glyph glyph-name="uni1ECF" unicode="&#x1ecf;" horiz-adv-x="652" 
d="M526 71q-79 -79 -200 -79t-200 79q-80 80 -80 195q0 114 80 194t200 80t200 -80t80 -194q0 -115 -80 -195zM205 140q48 -48 121 -48t120 48q48 49 48 126t-48 125q-46 49 -120 49q-73 0 -121 -49q-47 -49 -47 -125t47 -126zM373 628v-35h-87v65q9 -5 21.5 -5t23.5 4.5
t18.5 13.5t6.5 23q0 13 -6.5 22t-18 13.5t-26 3t-29.5 -9.5l-26 57q35 22 83 22q47 0 79 -29q31 -28 31 -66q0 -70 -70 -79z" />
    <glyph glyph-name="uni1ED0" unicode="&#x1ed0;" horiz-adv-x="840" 
d="M681 95q-106 -103 -262 -103t-262 103t-106 258t106 258q107 104 262 104t262 -104q106 -103 106 -258t-106 -258zM594 533q-71 74 -175 74t-176 -74q-71 -74 -71 -180q0 -105 71 -179q72 -74 176 -74t175 74q72 73 72 179t-72 180zM367 895h104l122 -134h-97l-77 56
l-77 -56h-97zM670 839h-102l106 145l118 -49z" />
    <glyph glyph-name="uni1ED1" unicode="&#x1ed1;" horiz-adv-x="652" 
d="M526 71q-79 -79 -200 -79t-200 79q-80 80 -80 195q0 114 80 194t200 80t200 -80t80 -194q0 -115 -80 -195zM205 140q48 -48 121 -48t120 48q48 49 48 126t-48 125q-46 49 -120 49q-73 0 -121 -49q-47 -49 -47 -125t47 -126zM274 727h104l122 -134h-97l-77 56l-77 -56h-97
zM577 671h-102l106 145l118 -49z" />
    <glyph glyph-name="uni1ED2" unicode="&#x1ed2;" horiz-adv-x="840" 
d="M682 95q-106 -103 -262 -103t-262 103t-106 258t106 258q107 104 262 104t262 -104q106 -103 106 -258t-106 -258zM595 533q-71 74 -175 74t-176 -74q-71 -74 -71 -180q0 -105 71 -179q72 -74 176 -74t175 74q72 73 72 179t-72 180zM368 895h104l122 -134h-97l-77 56
l-77 -56h-97zM508 935l118 49l106 -145h-102z" />
    <glyph glyph-name="uni1ED3" unicode="&#x1ed3;" horiz-adv-x="652" 
d="M526 71q-79 -79 -200 -79t-200 79q-80 80 -80 195q0 114 80 194t200 80t200 -80t80 -194q0 -115 -80 -195zM205 140q48 -48 121 -48t120 48q48 49 48 126t-48 125q-46 49 -120 49q-73 0 -121 -49q-47 -49 -47 -125t47 -126zM274 727h104l122 -134h-97l-77 56l-77 -56h-97
zM414 767l118 49l106 -145h-102z" />
    <glyph glyph-name="uni1ED4" unicode="&#x1ed4;" horiz-adv-x="840" 
d="M682 95q-106 -103 -262 -103t-262 103t-106 258t106 258q107 104 262 104t262 -104q106 -103 106 -258t-106 -258zM595 533q-71 74 -175 74t-176 -74q-71 -74 -71 -180q0 -105 71 -179q72 -74 176 -74t175 74q72 73 72 179t-72 180zM368 895h104l122 -134h-97l-77 56
l-77 -56h-97zM645 874v-35h-87v65q9 -5 21.5 -5t23.5 4.5t18.5 13.5t6.5 23q0 13 -6.5 22t-18 13.5t-26 3t-29.5 -9.5l-26 57q35 22 83 22q47 0 79 -29q31 -28 31 -66q0 -70 -70 -79z" />
    <glyph glyph-name="uni1ED5" unicode="&#x1ed5;" horiz-adv-x="652" 
d="M526 71q-79 -79 -200 -79t-200 79q-80 80 -80 195q0 114 80 194t200 80t200 -80t80 -194q0 -115 -80 -195zM205 140q48 -48 121 -48t120 48q48 49 48 126t-48 125q-46 49 -120 49q-73 0 -121 -49q-47 -49 -47 -125t47 -126zM272 727h104l122 -134h-97l-77 56l-77 -56h-97
zM549 706v-35h-87v65q9 -5 21.5 -5t23.5 4.5t18.5 13.5t6.5 23q0 13 -6.5 22t-18 13.5t-26 3t-29.5 -9.5l-26 57q35 22 83 22q47 0 79 -29q31 -28 31 -66q0 -70 -70 -79z" />
    <glyph glyph-name="uni1ED6" unicode="&#x1ed6;" horiz-adv-x="840" 
d="M682 95q-106 -103 -262 -103t-262 103t-106 258t106 258q107 104 262 104t262 -104q106 -103 106 -258t-106 -258zM595 533q-71 74 -175 74t-176 -74q-71 -74 -71 -180q0 -105 71 -179q72 -74 176 -74t175 74q72 73 72 179t-72 180zM494 936q-25 0 -73 23q-47 24 -59 24
q-32 0 -34 -44h-74q0 58 23.5 94t65.5 36q27 0 75 -24q49 -23 63 -23q30 0 30 44h75q-3 -130 -92 -130zM368 895h104l122 -134h-97l-77 56l-77 -56h-97z" />
    <glyph glyph-name="uni1ED7" unicode="&#x1ed7;" horiz-adv-x="652" 
d="M526 71q-79 -79 -200 -79t-200 79q-80 80 -80 195q0 114 80 194t200 80t200 -80t80 -194q0 -115 -80 -195zM205 140q48 -48 121 -48t120 48q48 49 48 126t-48 125q-46 49 -120 49q-73 0 -121 -49q-47 -49 -47 -125t47 -126zM400 768q-25 0 -73 23q-47 24 -59 24
q-32 0 -34 -44h-74q0 58 23.5 94t65.5 36q27 0 75 -24q49 -23 63 -23q30 0 30 44h75q-3 -130 -92 -130zM274 727h104l122 -134h-97l-77 56l-77 -56h-97z" />
    <glyph glyph-name="uni1ED8" unicode="&#x1ed8;" horiz-adv-x="840" 
d="M682 96q-106 -103 -262 -103t-262 103t-106 258t106 258q107 104 262 104t262 -104q106 -103 106 -258t-106 -258zM595 534q-71 74 -175 74t-176 -74q-71 -74 -71 -180q0 -105 71 -179q72 -74 176 -74t175 74q72 73 72 179t-72 180zM368 896h104l122 -134h-97l-77 56
l-77 -56h-97zM367 -179q-21 22 -21 53t21 52q22 22 53 22t53 -22q22 -21 22 -52t-22 -53t-53 -22t-53 22z" />
    <glyph glyph-name="uni1ED9" unicode="&#x1ed9;" horiz-adv-x="652" 
d="M526 71q-79 -79 -200 -79t-200 79q-80 80 -80 195q0 114 80 194t200 80t200 -80t80 -194q0 -115 -80 -195zM205 140q48 -48 121 -48t120 48q48 49 48 126t-48 125q-46 49 -120 49q-73 0 -121 -49q-47 -49 -47 -125t47 -126zM274 727h104l122 -134h-97l-77 56l-77 -56h-97
zM273 -203q-21 22 -21 53t21 52q22 22 53 22t53 -22q22 -21 22 -52t-22 -53t-53 -22t-53 22z" />
    <glyph glyph-name="uni1EDA" unicode="&#x1eda;" horiz-adv-x="840" 
d="M682 611q-16 16 -33.5 29.5t-36.5 24.5q70 9 70 79q0 38 -31 66q-32 29 -79 29q-48 0 -83 -22l26 -57q15 8 29.5 9.5t26 -3t18 -13.5t6.5 -22q2 -17 -9.5 -27t-26.5 -13q-63 24 -139 24q-155 0 -262 -104q-106 -103 -106 -258t106 -258t262 -103t262 103t106 258
t-106 258zM595 174q-71 -74 -175 -74t-176 74q-71 74 -71 179q0 106 71 180q72 74 176 74t175 -74q72 -74 72 -180t-72 -179zM394 762h-102l106 145l118 -49z" />
    <glyph glyph-name="uni1EDB" unicode="&#x1edb;" horiz-adv-x="652" 
d="M526 460q-21 21 -45 36v1q70 9 70 79q0 38 -31 66q-32 29 -79 29q-48 0 -83 -22l26 -57q15 8 29.5 9.5t26 -3t18 -13.5t6.5 -22q2 -17 -9.5 -27t-26.5 -13q-48 17 -102 17q-120 0 -200 -80t-80 -194q0 -115 80 -195q79 -79 200 -79t200 79q80 80 80 195q0 114 -80 194z
M446 140q-47 -48 -120 -48t-121 48q-47 50 -47 126t47 125q48 49 121 49q74 0 120 -49q48 -48 48 -125t-48 -126zM266 593h-102l106 145l118 -49z" />
    <glyph glyph-name="uni1EDC" unicode="&#x1edc;" horiz-adv-x="840" 
d="M682 612q-34 32 -70 54q70 9 70 79q0 38 -31 66q-32 29 -79 29q-48 0 -83 -22l26 -57q15 8 29.5 9.5t26 -3t18 -13.5t6.5 -22q2 -17 -9.5 -27t-26.5 -13q-65 24 -139 24q-155 0 -262 -104q-106 -103 -106 -258t106 -258t262 -103t262 103t106 258t-106 258zM595 175
q-71 -74 -175 -74t-176 74q-71 74 -71 179q0 106 71 180q72 74 176 74t175 -74q72 -74 72 -180t-72 -179zM272 859l118 49l106 -145h-102z" />
    <glyph glyph-name="uni1EDD" unicode="&#x1edd;" horiz-adv-x="652" 
d="M526 460q-21 21 -45 36v1q70 9 70 79q0 38 -31 66q-32 29 -79 29q-48 0 -83 -22l26 -57q15 8 29.5 9.5t26 -3t18 -13.5t6.5 -22q2 -17 -9.5 -27t-26.5 -13q-48 17 -102 17q-120 0 -200 -80t-80 -194q0 -115 80 -195q79 -79 200 -79t200 79q80 80 80 195q0 114 -80 194z
M446 140q-47 -48 -120 -48t-121 48q-47 50 -47 126t47 125q48 49 121 49q74 0 120 -49q48 -48 48 -125t-48 -126zM144 689l118 49l106 -145h-102z" />
    <glyph glyph-name="uni1EDF" unicode="&#x1edf;" horiz-adv-x="652" 
d="M293 628v-35h-87v65q9 -5 21.5 -5t23.5 4.5t18.5 13.5t6.5 23q0 13 -6.5 22t-18 13.5t-26 3t-29.5 -9.5l-26 57q35 22 83 22q47 0 79 -29q31 -28 31 -66q0 -70 -70 -79zM526 460q-21 21 -45 36v1q70 9 70 79q0 38 -31 66q-32 29 -79 29q-48 0 -83 -22l26 -57
q15 8 29.5 9.5t26 -3t18 -13.5t6.5 -22q2 -17 -9.5 -27t-26.5 -13q-48 17 -102 17q-120 0 -200 -80t-80 -194q0 -115 80 -195q79 -79 200 -79t200 79q80 80 80 195q0 114 -80 194zM446 140q-47 -48 -120 -48t-121 48q-47 50 -47 126t47 125q48 49 121 49q74 0 120 -49
q48 -48 48 -125t-48 -126z" />
    <glyph glyph-name="uni1EE0" unicode="&#x1ee0;" horiz-adv-x="840" 
d="M682 612q-34 32 -70 54q70 9 70 79q0 38 -31 66q-32 29 -79 29q-48 0 -83 -22l26 -57q15 8 29.5 9.5t26 -3t18 -13.5t6.5 -22q2 -17 -10 -27t-27 -13q-63 24 -138 24q-155 0 -262 -104q-106 -103 -106 -258t106 -258t262 -103t262 103t106 258t-106 258zM595 175
q-71 -74 -175 -74t-176 74q-71 74 -71 179q0 106 71 180q72 74 176 74t175 -74q72 -74 72 -180t-72 -179zM478 839q-25 0 -73 23q-47 24 -59 24q-32 0 -34 -44h-74q0 58 23.5 94t65.5 36q27 0 75 -24q49 -23 63 -23q30 0 30 44h75q-3 -130 -92 -130z" />
    <glyph glyph-name="uni1EE1" unicode="&#x1ee1;" horiz-adv-x="652" 
d="M400 688q-25 0 -73 23q-47 24 -59 24q-32 0 -34 -44h-74q0 58 23.5 94t65.5 36q27 0 75 -24q49 -23 63 -23q30 0 30 44h75q-3 -130 -92 -130zM526 460q-21 21 -45 36v1q70 9 70 79q0 38 -31 66q-32 29 -79 29q-48 0 -83 -22l26 -57q15 8 29.5 9.5t26 -3t18 -13.5t6.5 -22
q2 -17 -9.5 -27t-26.5 -13q-48 17 -102 17q-120 0 -200 -80t-80 -194q0 -115 80 -195q79 -79 200 -79t200 79q80 80 80 195q0 114 -80 194zM446 140q-47 -48 -120 -48t-121 48q-47 50 -47 126t47 125q48 49 121 49q74 0 120 -49q48 -48 48 -125t-48 -126z" />
    <glyph glyph-name="uni1EE2" unicode="&#x1ee2;" horiz-adv-x="840" 
d="M683 612q106 -103 106 -258t-106 -258t-262 -103t-262 103t-106 258t106 258q107 104 262 104q75 0 138 -24q15 3 27 13t10 27q0 13 -6.5 22t-18 13.5t-26 3t-29.5 -9.5l-26 57q35 22 83 22q47 0 79 -29q31 -28 31 -66q0 -70 -70 -79q36 -22 70 -54zM596 175
q72 73 72 179t-72 180q-71 74 -175 74t-176 -74q-71 -74 -71 -180q0 -105 71 -179q72 -74 176 -74t175 74zM367 -179q-21 22 -21 53t21 52q22 22 53 22t53 -22q22 -21 22 -52t-22 -53t-53 -22t-53 22z" />
    <glyph glyph-name="uni1EE3" unicode="&#x1ee3;" horiz-adv-x="652" 
d="M273 -203q-21 22 -21 53t21 52q22 22 53 22t53 -22q22 -21 22 -52t-22 -53t-53 -22t-53 22zM526 460q80 -80 80 -194q0 -115 -80 -195q-79 -79 -200 -79t-200 79q-80 80 -80 195q0 114 80 194t200 80q54 0 102 -17q15 3 26.5 13t9.5 27q0 13 -6.5 22t-18 13.5t-26 3
t-29.5 -9.5l-26 57q35 22 83 22q47 0 79 -29q31 -28 31 -66q0 -70 -70 -79v-1q24 -15 45 -36zM446 140q48 49 48 126t-48 125q-46 49 -120 49q-73 0 -121 -49q-47 -49 -47 -125t47 -126q48 -48 121 -48t120 48z" />
    <glyph glyph-name="uni1EE4" unicode="&#x1ee4;" horiz-adv-x="768" 
d="M331 -186q-21 22 -21 53t21 52q22 22 53 22t53 -22q22 -21 22 -52t-22 -53t-53 -22t-53 22zM562 312v387h118v-392q0 -150 -83 -233q-83 -81 -213 -81q-131 0 -213 81q-83 83 -83 233v392h118v-387q0 -96 48 -152t130 -56t130 56t48 152z" />
    <glyph glyph-name="uni1EE5" unicode="&#x1ee5;" horiz-adv-x="646" 
d="M266 -203q-21 22 -21 53t21 52q22 22 53 22t53 -22q22 -21 22 -52t-22 -53t-53 -22t-53 22zM453 244v288h112v-532h-112v97q-27 -49 -74.5 -77t-102.5 -28q-45 0 -82 14t-63.5 41t-41 67t-14.5 92v326h112v-292q0 -147 122 -147q29 0 55 10t46 29t31.5 47t11.5 65z" />
    <glyph glyph-name="uni1EE6" unicode="&#x1ee6;" horiz-adv-x="768" 
d="M562 312v387h118v-392q0 -150 -83 -233q-83 -81 -213 -81q-131 0 -213 81q-83 83 -83 233v392h118v-387q0 -96 48 -152t130 -56t130 56t48 152zM441 792v-35h-87v65q9 -5 21.5 -5t23.5 4.5t18.5 13.5t6.5 23q0 13 -6.5 22t-18 13.5t-26 3t-29.5 -9.5l-26 57q35 22 83 22
q47 0 79 -29q31 -28 31 -66q0 -70 -70 -79z" />
    <glyph glyph-name="uni1EE7" unicode="&#x1ee7;" horiz-adv-x="646" 
d="M366 628v-35h-87v65q9 -5 21.5 -5t23.5 4.5t18.5 13.5t6.5 23q0 13 -6.5 22t-18 13.5t-26 3t-29.5 -9.5l-26 57q35 22 83 22q47 0 79 -29q31 -28 31 -66q0 -70 -70 -79zM453 244v288h112v-532h-112v97q-27 -49 -74.5 -77t-102.5 -28q-45 0 -82 14t-63.5 41t-41 67
t-14.5 92v326h112v-292q0 -147 122 -147q29 0 55 10t46 29t31.5 47t11.5 65z" />
    <glyph glyph-name="uni1EE8" unicode="&#x1ee8;" horiz-adv-x="768" 
d="M750 740q0 38 -31 66q-32 29 -79 29q-48 0 -83 -22l26 -57q15 8 29.5 9.5t26 -3t18 -13.5t6.5 -22q1 -16 -11 -28h-90v-387q0 -96 -48 -152t-130 -56t-130 56t-48 152v387h-118v-392q0 -150 83 -233q82 -81 213 -81q130 0 213 81q83 83 83 233v354q70 9 70 79zM409 758
h-102l106 145l118 -49z" />
    <glyph glyph-name="uni1EE9" unicode="&#x1ee9;" horiz-adv-x="646" 
d="M635 576q0 38 -31 66q-32 29 -79 29q-48 0 -83 -22l26 -57q15 8 29.5 9.5t26 -3t18 -13.5t6.5 -22q1 -20 -15 -31h-80v-288q0 -74 -43 -113q-44 -38 -101 -38q-122 0 -122 147v292h-112v-326q0 -52 14.5 -92t41 -67t63.5 -41t82 -14q55 0 102.5 28t74.5 77v-97h112v497
q70 9 70 79zM345 593h-102l106 145l118 -49z" />
    <glyph glyph-name="uni1EEA" unicode="&#x1eea;" horiz-adv-x="768" 
d="M750 740q0 38 -31 66q-32 29 -79 29q-48 0 -83 -22l26 -57q15 8 29.5 9.5t26 -3t18 -13.5t6.5 -22q1 -17 -11 -28h-90v-387q0 -96 -48 -152t-130 -56t-130 56t-48 152v387h-118v-392q0 -150 83 -233q82 -81 213 -81q130 0 213 81q83 83 83 233v354q70 9 70 79zM257 854
l118 49l106 -145h-102z" />
    <glyph glyph-name="uni1EEB" unicode="&#x1eeb;" horiz-adv-x="646" 
d="M635 576q0 38 -31 66q-32 29 -79 29q-48 0 -83 -22l26 -57q15 8 29.5 9.5t26 -3t18 -13.5t6.5 -22q1 -19 -14 -31h-81v-288q0 -74 -43 -113q-44 -38 -101 -38q-122 0 -122 147v292h-112v-326q0 -52 14.5 -92t41 -67t63.5 -41t82 -14q55 0 102.5 28t74.5 77v-97h112v497
q70 9 70 79zM203 689l118 49l106 -145h-102z" />
    <glyph glyph-name="uni1EEC" unicode="&#x1eec;" horiz-adv-x="768" 
d="M416 793v-35h-87v65q9 -5 21.5 -5t23.5 4.5t18.5 13.5t6.5 23q0 13 -6.5 22t-18 13.5t-26 3t-29.5 -9.5l-26 57q35 22 83 22q47 0 79 -29q31 -28 31 -66q0 -70 -70 -79zM750 740q0 38 -31 66q-32 29 -79 29q-48 0 -83 -22l26 -57q15 8 29.5 9.5t26 -3t18 -13.5t6.5 -22
q1 -17 -11 -28h-90v-387q0 -96 -48 -152t-130 -56t-130 56t-48 152v387h-118v-392q0 -150 83 -233q82 -81 213 -81q130 0 213 81q83 83 83 233v354q70 9 70 79z" />
    <glyph glyph-name="uni1EED" unicode="&#x1eed;" horiz-adv-x="646" 
d="M342 628v-35h-87v65q9 -5 21.5 -5t23.5 4.5t18.5 13.5t6.5 23q0 13 -6.5 22t-18 13.5t-26 3t-29.5 -9.5l-26 57q35 22 83 22q47 0 79 -29q31 -28 31 -66q0 -70 -70 -79zM635 576q0 38 -31 66q-32 29 -79 29q-48 0 -83 -22l26 -57q15 8 29.5 9.5t26 -3t18 -13.5t6.5 -22
q2 -11 -2.5 -18.5t-11.5 -12.5h-81v-288q0 -74 -43 -113q-44 -38 -101 -38q-122 0 -122 147v292h-112v-326q0 -52 14.5 -92t41 -67t63.5 -41t82 -14q55 0 102.5 28t74.5 77v-97h112v497q70 9 70 79z" />
    <glyph glyph-name="uni1EEE" unicode="&#x1eee;" horiz-adv-x="768" 
d="M463 834q-25 0 -73 23q-47 24 -59 24q-32 0 -34 -44h-74q0 58 23.5 94t65.5 36q27 0 75 -24q49 -23 63 -23q30 0 30 44h75q-3 -130 -92 -130zM750 740q0 38 -31 66q-32 29 -79 29q-48 0 -83 -22l26 -57q15 8 29.5 9.5t26 -3t18 -13.5t6.5 -22q1 -16 -11 -28h-90v-387
q0 -96 -48 -152t-130 -56t-130 56t-48 152v387h-118v-392q0 -150 83 -233q82 -81 213 -81q130 0 213 81q83 83 83 233v354q70 9 70 79z" />
    <glyph glyph-name="uni1EEF" unicode="&#x1eef;" horiz-adv-x="646" 
d="M389 688q-25 0 -73 23q-47 24 -59 24q-32 0 -34 -44h-74q0 58 23.5 94t65.5 36q27 0 75 -24q49 -23 63 -23q30 0 30 44h75q-3 -130 -92 -130zM635 576q0 38 -31 66q-32 29 -79 29q-48 0 -83 -22l26 -57q15 8 29.5 9.5t26 -3t18 -13.5t6.5 -22q1 -20 -15 -31h-80v-288
q0 -74 -43 -113q-44 -38 -101 -38q-122 0 -122 147v292h-112v-326q0 -52 14.5 -92t41 -67t63.5 -41t82 -14q55 0 102.5 28t74.5 77v-97h112v497q70 9 70 79z" />
    <glyph glyph-name="uni1EF0" unicode="&#x1ef0;" horiz-adv-x="768" 
d="M366 -184q-21 22 -21 53t21 52q22 22 53 22t53 -22q22 -21 22 -52t-22 -53t-53 -22t-53 22zM750 740q0 -70 -70 -79v-354q0 -150 -83 -233q-83 -81 -213 -81q-131 0 -213 81q-83 83 -83 233v392h118v-387q0 -96 48 -152t130 -56t130 56t48 152v387h90q12 12 11 28
q0 13 -6.5 22t-18 13.5t-26 3t-29.5 -9.5l-26 57q35 22 83 22q47 0 79 -29q31 -28 31 -66z" />
    <glyph glyph-name="uni1EF1" unicode="&#x1ef1;" horiz-adv-x="646" 
d="M635 576q0 -70 -70 -79v-497h-112v97q-27 -49 -74.5 -77t-102.5 -28q-45 0 -82 14t-63.5 41t-41 67t-14.5 92v326h112v-292q0 -147 122 -147q57 0 101 38q43 39 43 113v288h80q16 11 15 31q0 13 -6.5 22t-18 13.5t-26 3t-29.5 -9.5l-26 57q35 22 83 22q47 0 79 -29
q31 -28 31 -66zM302 -203q-21 22 -21 53t21 52q22 22 53 22t53 -22q22 -21 22 -52t-22 -53t-53 -22t-53 22z" />
    <glyph glyph-name="Ygrave" unicode="&#x1ef2;" horiz-adv-x="624" 
d="M372 -1h-120v276l-260 423h129l191 -318l191 318h129l-260 -423v-276zM394 757h-102l-122 96l118 49z" />
    <glyph glyph-name="ygrave" unicode="&#x1ef3;" horiz-adv-x="574" 
d="M148 -212q-73 0 -132 53l51 91q26 -27 54.5 -31.5t51.5 6t37.5 32t13.5 46.5q0 13 -215 547h120l159 -392l159 392h120l-258 -632q-23 -52 -66 -82t-95 -30zM370 592h-102l-122 96l118 49z" />
    <glyph glyph-name="uni1EF4" unicode="&#x1ef4;" horiz-adv-x="624" 
d="M372 0h-120v276l-260 423h129l191 -318l191 318h129l-260 -423v-276zM258 -185q-21 22 -21 53t21 52q22 22 53 22t53 -22q22 -21 22 -52t-22 -53t-53 -22t-53 22z" />
    <glyph glyph-name="uni1EF5" unicode="&#x1ef5;" horiz-adv-x="574" 
d="M399 -201q-21 22 -21 53t21 52q22 22 53 22t53 -22q22 -21 22 -52t-22 -53t-53 -22t-53 22zM148 -212q-73 0 -132 53l51 91q26 -27 54.5 -31.5t51.5 6t37.5 32t13.5 46.5q0 13 -215 547h120l159 -392l159 392h120l-258 -632q-23 -52 -66 -82t-95 -30z" />
    <glyph glyph-name="uni1EF6" unicode="&#x1ef6;" horiz-adv-x="624" 
d="M372 0h-120v276l-260 423h129l191 -318l191 318h129l-260 -423v-276zM368 793v-35h-87v65q9 -5 21.5 -5t23.5 4.5t18.5 13.5t6.5 23q0 13 -6.5 22t-18 13.5t-26 3t-29.5 -9.5l-26 57q35 22 83 22q47 0 79 -29q31 -28 31 -66q0 -70 -70 -79z" />
    <glyph glyph-name="uni1EF7" unicode="&#x1ef7;" horiz-adv-x="574" 
d="M335 627v-35h-87v65q9 -5 21.5 -5t23.5 4.5t18.5 13.5t6.5 23q0 13 -6.5 22t-18 13.5t-26 3t-29.5 -9.5l-26 57q35 22 83 22q47 0 79 -29q31 -28 31 -66q0 -70 -70 -79zM148 -212q-73 0 -132 53l51 91q26 -27 54.5 -31.5t51.5 6t37.5 32t13.5 46.5q0 13 -215 547h120
l159 -392l159 392h120l-258 -632q-23 -52 -66 -82t-95 -30z" />
    <glyph glyph-name="uni1EF8" unicode="&#x1ef8;" horiz-adv-x="624" 
d="M372 0h-120v276l-260 423h129l191 -318l191 318h129l-260 -423v-276zM386 754q-25 0 -73 23q-47 24 -59 24q-32 0 -34 -44h-74q0 58 23.5 94t65.5 36q27 0 75 -24q49 -23 63 -23q30 0 30 44h75q-3 -130 -92 -130z" />
    <glyph glyph-name="uni1EF9" unicode="&#x1ef9;" horiz-adv-x="574" 
d="M362 589q-25 0 -73 23q-47 24 -59 24q-32 0 -34 -44h-74q0 58 23.5 94t65.5 36q27 0 75 -24q49 -23 63 -23q30 0 30 44h75q-3 -130 -92 -130zM148 -212q-73 0 -132 53l51 91q26 -27 54.5 -31.5t51.5 6t37.5 32t13.5 46.5q0 13 -215 547h120l159 -392l159 392h120
l-258 -632q-23 -52 -66 -82t-95 -30z" />
    <glyph glyph-name="uni1EB0" unicode="&#x1eb0;" horiz-adv-x="742" 
d="M196 159l-70 -159h-126l308 699h126l308 -699h-126l-70 159h-350zM498 268l-127 288l-127 -288h254zM216 891h76q16 -57 79 -57q62 0 80 57h75q-5 -63 -47 -98.5t-108 -35.5t-108 35.5t-47 98.5zM209 981l118 49l106 -145h-102z" />
    <glyph glyph-name="Utilde" unicode="&#x168;" horiz-adv-x="768" 
d="M467 753q-25 0 -73 23q-47 24 -59 24q-32 0 -34 -44h-74q0 58 23.5 94t65.5 36q27 0 75 -24q49 -23 63 -23q30 0 30 44h75q-3 -130 -92 -130zM562 312v387h118v-392q0 -151 -83 -232.5t-213 -81.5t-213 81.5t-83 232.5v392h118v-387q0 -96 48 -152t130 -56t130 56t48 152
z" />
    <glyph glyph-name="utilde" unicode="&#x169;" horiz-adv-x="646" 
d="M416 597q-25 0 -73 23q-47 24 -59 24q-32 0 -34 -44h-74q0 58 23.5 94t65.5 36q27 0 75 -24q49 -23 63 -23q30 0 30 44h75q-3 -130 -92 -130zM453 244v288h112v-532h-112v97q-27 -49 -74.5 -77t-102.5 -28q-45 0 -82 14t-63.5 41t-41 67t-14.5 92v326h112v-292
q0 -147 122 -147q29 0 55 10t46 29t31.5 47t11.5 65z" />
    </font>
</defs>
</svg>
